<?xml version="1.0" encoding="UTF-8"?>
<svg id="Layer_3" data-name="Layer 3" xmlns="http://www.w3.org/2000/svg" xmlns:xlink="http://www.w3.org/1999/xlink" viewBox="0 0 1024 1024">
  <defs>
    <style>
      .cls-1 {
        fill: url(#linear-gradient-13);
      }

      .cls-2 {
        fill: #2b4b71;
      }

      .cls-3 {
        fill: url(#linear-gradient-2);
      }

      .cls-4 {
        fill: url(#linear-gradient-10);
      }

      .cls-5 {
        fill: url(#linear-gradient-12);
      }

      .cls-6 {
        fill: #fff;
      }

      .cls-7 {
        fill: url(#linear-gradient-14);
      }

      .cls-7, .cls-8, .cls-9, .cls-10 {
        opacity: .55;
      }

      .cls-8 {
        fill: url(#linear-gradient-5);
      }

      .cls-11 {
        fill: #5181b2;
      }

      .cls-12, .cls-13 {
        fill: none;
      }

      .cls-14 {
        fill: url(#linear-gradient-4);
      }

      .cls-15 {
        fill: url(#linear-gradient-3);
      }

      .cls-16 {
        filter: url(#drop-shadow-1);
      }

      .cls-17 {
        fill: url(#linear-gradient-8);
      }

      .cls-13 {
        stroke: #2b4b71;
        stroke-linecap: round;
        stroke-linejoin: round;
        stroke-width: 7.07px;
      }

      .cls-18 {
        fill: url(#linear-gradient-7);
      }

      .cls-19 {
        fill: url(#linear-gradient-9);
      }

      .cls-20 {
        fill: url(#linear-gradient-11);
      }

      .cls-21 {
        fill: url(#linear-gradient-6);
      }

      .cls-22 {
        fill: #71a9d8;
      }

      .cls-23 {
        fill: #70aad8;
      }

      .cls-24 {
        fill: url(#linear-gradient-16);
      }

      .cls-25 {
        fill: url(#linear-gradient);
      }

      .cls-9 {
        fill: url(#linear-gradient-17);
      }

      .cls-26 {
        clip-path: url(#clippath);
      }

      .cls-10 {
        fill: url(#linear-gradient-15);
      }
    </style>
    <linearGradient id="linear-gradient" x1="0" y1="512" x2="1024" y2="512" gradientUnits="userSpaceOnUse">
      <stop offset="0" stop-color="#1c2130"/>
      <stop offset="1" stop-color="#0d1016"/>
    </linearGradient>
    <filter id="drop-shadow-1" x="96.5" y="123.87" width="831" height="776" filterUnits="userSpaceOnUse">
      <feOffset dx="0" dy="0"/>
      <feGaussianBlur result="blur" stdDeviation="30.67"/>
      <feFlood flood-color="#091221" flood-opacity=".6"/>
      <feComposite in2="blur" operator="in"/>
      <feComposite in="SourceGraphic"/>
    </filter>
    <linearGradient id="linear-gradient-2" x1="-8011.07" y1="-612.46" x2="-8139.77" y2="-446.3" gradientTransform="translate(-7565.34 -1015.09) rotate(-164.51) scale(1 -1)" gradientUnits="userSpaceOnUse">
      <stop offset=".35" stop-color="#70aad8"/>
      <stop offset=".56" stop-color="#5d90c0"/>
      <stop offset=".74" stop-color="#5181b2"/>
    </linearGradient>
    <linearGradient id="linear-gradient-3" x1="-308.48" y1="1522.37" x2="-437.18" y2="1688.54" gradientTransform="translate(596.38 -1015.09) rotate(-15.49)" xlink:href="#linear-gradient-2"/>
    <linearGradient id="linear-gradient-4" x1="512" y1="531.22" x2="512" y2="762.79" gradientUnits="userSpaceOnUse">
      <stop offset="0" stop-color="#abd9f3"/>
      <stop offset=".47" stop-color="#acd9f3"/>
      <stop offset=".63" stop-color="#b3dcf4"/>
      <stop offset=".75" stop-color="#bfe2f5"/>
      <stop offset=".85" stop-color="#d0e9f8"/>
      <stop offset=".93" stop-color="#e6f3fb"/>
      <stop offset="1" stop-color="#fff"/>
    </linearGradient>
    <linearGradient id="linear-gradient-5" x1="512" y1="705.5" x2="512" y2="495.25" gradientUnits="userSpaceOnUse">
      <stop offset=".46" stop-color="#5181b2" stop-opacity="0"/>
      <stop offset=".52" stop-color="#5181b2" stop-opacity=".3"/>
      <stop offset=".59" stop-color="#5181b2" stop-opacity=".67"/>
      <stop offset=".64" stop-color="#5181b2" stop-opacity=".91"/>
      <stop offset=".67" stop-color="#5181b2"/>
    </linearGradient>
    <linearGradient id="linear-gradient-6" x1="-2376.7" y1="2400.72" x2="-2226.78" y2="2400.72" gradientTransform="translate(3077.63 2900.67) scale(1 -1)" gradientUnits="userSpaceOnUse">
      <stop offset="0" stop-color="#abd9f3"/>
      <stop offset=".18" stop-color="#a5d5f1"/>
      <stop offset=".42" stop-color="#94caec"/>
      <stop offset=".69" stop-color="#79b9e3"/>
      <stop offset=".98" stop-color="#53a0d7"/>
      <stop offset="1" stop-color="#519fd7"/>
    </linearGradient>
    <linearGradient id="linear-gradient-7" x1="-7672.52" y1="224.25" x2="-7576.79" y2="346.1" gradientTransform="translate(-6968.96) rotate(-180) scale(1 -1)" gradientUnits="userSpaceOnUse">
      <stop offset=".44" stop-color="#5181b2" stop-opacity="0"/>
      <stop offset=".86" stop-color="#5181b2"/>
    </linearGradient>
    <linearGradient id="linear-gradient-8" x1="320.44" y1="224.23" x2="416.17" y2="346.08" gradientTransform="matrix(1,0,0,1,0,0)" xlink:href="#linear-gradient-7"/>
    <linearGradient id="linear-gradient-9" x1="512.11" y1="219.23" x2="512.11" y2="746.98" gradientUnits="userSpaceOnUse">
      <stop offset=".32" stop-color="#70aad8"/>
      <stop offset=".59" stop-color="#5d90c0"/>
      <stop offset=".81" stop-color="#5181b2"/>
    </linearGradient>
    <linearGradient id="linear-gradient-10" x1="439.11" y1="349.41" x2="439.11" y2="569.02" gradientUnits="userSpaceOnUse">
      <stop offset=".27" stop-color="#abd9f3"/>
      <stop offset=".61" stop-color="#acd9f3"/>
      <stop offset=".73" stop-color="#b3dcf4"/>
      <stop offset=".82" stop-color="#bfe2f5"/>
      <stop offset=".89" stop-color="#d0e9f8"/>
      <stop offset=".95" stop-color="#e6f3fb"/>
      <stop offset="1" stop-color="#fff"/>
    </linearGradient>
    <linearGradient id="linear-gradient-11" x1="-7423.58" y1="349.41" x2="-7423.58" y2="569.02" gradientTransform="translate(-6838.94) rotate(-180) scale(1 -1)" xlink:href="#linear-gradient-10"/>
    <linearGradient id="linear-gradient-12" x1="360.05" y1="-5109.04" x2="509.97" y2="-5109.04" gradientTransform="translate(-181.65 5609)" gradientUnits="userSpaceOnUse">
      <stop offset="0" stop-color="#abd9f3"/>
      <stop offset=".18" stop-color="#a3d3f0"/>
      <stop offset=".45" stop-color="#8dc6e9"/>
      <stop offset=".79" stop-color="#6aafdf"/>
      <stop offset="1" stop-color="#519fd7"/>
    </linearGradient>
    <linearGradient id="linear-gradient-13" x1="-17874.38" y1="800.39" x2="-17855.4" y2="636.89" gradientTransform="translate(-17294.62) rotate(-180) scale(1 -1)" xlink:href="#linear-gradient-2"/>
    <linearGradient id="linear-gradient-14" x1="-17865.26" y1="742.69" x2="-17879.8" y2="811.73" gradientTransform="translate(-17294.62) rotate(-180) scale(1 -1)" xlink:href="#linear-gradient-5"/>
    <clipPath id="clippath">
      <path class="cls-12" d="M480.67,756.89l145.31-45.06v.02c5.27-1.92,10.96-2.97,16.87-2.97,27.27,0,49.44,22.17,49.44,49.44,0,27.27-22.17,49.44-49.44,49.44h-157.13c-14.15,0-25.65-11.5-25.65-25.65,0-12.44,8.85-22.88,20.61-25.21Z"/>
    </clipPath>
    <linearGradient id="linear-gradient-15" x1="637.3" y1="764.39" x2="543.65" y2="783.77" xlink:href="#linear-gradient-5"/>
    <linearGradient id="linear-gradient-16" x1="444.24" y1="800.39" x2="463.22" y2="636.89" gradientTransform="matrix(1,0,0,1,0,0)" xlink:href="#linear-gradient-2"/>
    <linearGradient id="linear-gradient-17" x1="453.36" y1="742.69" x2="438.82" y2="811.73" xlink:href="#linear-gradient-5"/>
  </defs>
  <g id="Layer_4" data-name="Layer 4">
    <g>
      <g class="cls-16">
        <g>
          <path class="cls-3" d="M295.37,597.25c.48-.08.96-.14,1.45-.2.48-.09.96-.16,1.44-.22.48-.09.95-.17,1.44-.24.48-.09.95-.18,1.44-.25.48-.09.95-.2,1.43-.27.48-.1.94-.21,1.43-.28.07-.01.14-.03.21-.04.46-.12.94-.2,1.41-.3.46-.12.93-.21,1.4-.31.46-.13.93-.22,1.4-.33.46-.13.93-.24,1.4-.34.46-.13.92-.25,1.39-.36.46-.13.92-.26,1.39-.37.46-.14.92-.28,1.38-.39.46-.14.91-.29,1.38-.4.46-.14.91-.3,1.37-.42.03,0,.06-.02.09-.03.44-.16.9-.29,1.36-.43.44-.17.9-.3,1.35-.45.44-.17.9-.31,1.35-.46.44-.17.89-.32,1.35-.47.44-.17.89-.34,1.34-.49.44-.18.89-.35,1.34-.5.44-.18.88-.36,1.33-.52.44-.18.88-.37,1.33-.53.44-.18.87-.38,1.33-.55.59-.29,1.2-.55,1.81-.8.39-.18.78-.36,1.17-.52.41-.19.82-.38,1.23-.56.38-.19.77-.36,1.17-.53.38-.19.77-.37,1.17-.55.38-.2.77-.38,1.16-.56.38-.2.77-.39,1.16-.58.39-.21.78-.41,1.18-.6.38-.21.78-.41,1.17-.6.38-.21.76-.41,1.15-.61.38-.21.76-.42,1.15-.62.38-.22.76-.43,1.15-.63.38-.22.76-.44,1.14-.65.38-.23.77-.45,1.16-.66.37-.23.76-.45,1.14-.66.37-.23.75-.46,1.14-.67.37-.24.75-.46,1.13-.69.37-.24.75-.47,1.13-.7.37-.24.75-.48,1.13-.71.37-.25.74-.49,1.12-.72.37-.25.75-.49,1.13-.73.37-.25.74-.5,1.12-.74.37-.26.74-.51,1.12-.75,5.97-4.25,38.24-31.57,46.13-31.19,18.64.91,8.12,41.72,7.21,60.36-.64,13.08-8.64,24.05-19.79,29.12-.55.28-1.11.55-1.68.8-.55.28-1.12.55-1.69.8-.56.27-1.12.54-1.69.78-.56.27-1.14.53-1.71.77-.56.27-1.13.51-1.7.75-.56.26-1.13.51-1.71.74-.56.26-1.14.5-1.72.72-.57.25-1.14.49-1.72.71-.57.25-1.14.48-1.73.7-.57.24-1.15.47-1.73.68-.57.24-1.15.46-1.74.66-.57.23-1.16.45-1.74.65-.58.23-1.16.44-1.75.64-.58.22-1.16.43-1.76.62-.58.22-1.16.42-1.75.61-.58.21-1.17.4-1.76.58-.58.21-1.18.4-1.78.57-.59.2-1.18.39-1.78.56-.59.2-1.18.38-1.79.55-.59.19-1.19.37-1.8.53-.58.18-1.17.35-1.76.5-.59.18-1.2.34-1.8.49-.68.2-1.38.38-2.08.54-.47.13-.95.24-1.43.35-.55.16-1.11.29-1.68.41-.55.15-1.12.28-1.68.4-.56.15-1.12.27-1.69.39-.56.15-1.13.26-1.7.37-1.01.26-2.04.48-3.09.64-.56.12-1.12.24-1.7.33-.56.11-1.13.23-1.7.31-.57.11-1.13.22-1.71.3-.57.11-1.14.21-1.71.28-.57.11-1.14.2-1.72.27-.57.1-1.14.18-1.72.25-.57.1-1.15.17-1.73.24-.57.1-1.15.16-1.74.22-.57.09-1.16.15-1.74.21-1.01.16-2.04.28-3.08.33-.58.06-1.15.13-1.74.16-.58.06-1.16.12-1.75.15-.58.06-1.16.11-1.75.13-.58.05-1.17.1-1.76.12-.58.05-1.17.09-1.76.1-.59.05-1.18.07-1.77.08-.59.04-1.18.06-1.77.07-.59.04-1.18.05-1.78.05-.59.04-1.19.04-1.79.04-.59.03-1.19.02-1.79.02-.95.05-1.92.05-2.89,0-.05,0-.09-.01-.13-.01-.5,0-.99.03-1.49,0-15.36-.75-27.21-13.81-26.46-29.18.68-13.82,11.32-24.76,24.63-26.28Z"/>
          <path class="cls-15" d="M728.63,597.27c-.48-.08-.96-.14-1.45-.2-.48-.09-.96-.16-1.44-.22-.48-.09-.95-.17-1.44-.24-.48-.09-.95-.18-1.44-.25-.48-.09-.95-.2-1.43-.27-.48-.1-.94-.21-1.43-.28-.07-.01-.14-.03-.21-.04-.46-.12-.94-.2-1.41-.3-.46-.12-.93-.21-1.4-.31-.46-.13-.93-.22-1.4-.33-.46-.13-.93-.24-1.4-.34-.46-.13-.92-.25-1.39-.36-.46-.13-.92-.26-1.39-.37-.46-.14-.92-.28-1.38-.39-.46-.14-.91-.29-1.38-.4-.46-.14-.91-.3-1.37-.42-.03,0-.06-.02-.09-.03-.44-.16-.9-.29-1.36-.43-.44-.17-.9-.3-1.35-.45-.44-.17-.9-.31-1.35-.46-.44-.17-.89-.32-1.35-.47-.44-.17-.89-.34-1.34-.49-.44-.18-.89-.35-1.34-.5-.44-.18-.88-.36-1.33-.52-.44-.18-.88-.37-1.33-.53-.44-.18-.87-.38-1.33-.55-.59-.29-1.2-.55-1.81-.8-.39-.18-.78-.36-1.17-.52-.41-.19-.82-.38-1.23-.56-.38-.19-.77-.36-1.17-.53-.38-.19-.77-.37-1.17-.55-.38-.2-.77-.38-1.16-.56-.38-.2-.77-.39-1.16-.58-.39-.21-.78-.41-1.18-.6-.38-.21-.78-.41-1.17-.6-.38-.21-.76-.41-1.15-.61-.38-.21-.76-.42-1.15-.62-.38-.22-.76-.43-1.15-.63-.38-.22-.76-.44-1.14-.65-.38-.23-.77-.45-1.16-.66-.37-.23-.76-.45-1.14-.66-.37-.23-.75-.46-1.14-.67-.37-.24-.75-.46-1.13-.69-.37-.24-.75-.47-1.13-.7-.37-.24-.75-.48-1.13-.71-.37-.25-.74-.49-1.12-.72-.37-.25-.75-.49-1.13-.73-.37-.25-.74-.5-1.12-.74-.37-.26-.74-.51-1.12-.75-5.97-4.25-38.24-31.57-46.13-31.19-18.64.91-8.12,41.72-7.21,60.36.64,13.08,8.64,24.05,19.79,29.12.55.28,1.11.55,1.68.8.55.28,1.12.55,1.69.8.56.27,1.12.54,1.69.78.56.27,1.14.53,1.71.77.56.27,1.13.51,1.7.75.56.26,1.13.51,1.71.74.56.26,1.14.5,1.72.72.57.25,1.14.49,1.72.71.57.25,1.14.48,1.73.7.57.24,1.15.47,1.73.68.57.24,1.15.46,1.74.66.57.23,1.16.45,1.74.65.58.23,1.16.44,1.75.64.58.22,1.16.43,1.76.62.58.22,1.16.42,1.75.61.58.21,1.17.4,1.76.58.58.21,1.18.4,1.78.57.59.2,1.18.39,1.78.56.59.2,1.18.38,1.79.55.59.19,1.19.37,1.8.53.58.18,1.17.35,1.76.5.59.18,1.2.34,1.8.49.68.2,1.38.38,2.08.54.47.13.95.24,1.43.35.55.16,1.11.29,1.68.41.55.15,1.12.28,1.68.4.56.15,1.12.27,1.69.39.56.15,1.13.26,1.7.37,1.01.26,2.04.48,3.09.64.56.12,1.12.24,1.7.33.56.11,1.13.23,1.7.31.57.11,1.13.22,1.71.3.57.11,1.14.21,1.71.28.57.11,1.14.2,1.72.27.57.1,1.14.18,1.72.25.57.1,1.15.17,1.73.24.57.1,1.15.16,1.74.22.57.09,1.16.15,1.74.21,1.01.16,2.04.28,3.08.33.58.06,1.15.13,1.74.16.58.06,1.16.12,1.75.15.58.06,1.16.11,1.75.13.58.05,1.17.1,1.76.12.58.05,1.17.09,1.76.1.59.05,1.18.07,1.77.08.59.04,1.18.06,1.77.07.59.04,1.18.05,1.78.05.59.04,1.19.04,1.79.04.59.03,1.19.02,1.79.02.95.05,1.92.05,2.89,0,.05,0,.09-.01.13-.01.5,0,.99.03,1.49,0,15.36-.75,27.21-13.81,26.46-29.18-.68-13.82-11.32-24.76-24.63-26.28Z"/>
          <path class="cls-23" d="M627.89,526.59l-115.79-26.61v-.07l-.14.03h-.06s0,.01,0,.01l-115.79,26.61c-13.57,34.9-26.4,73.57-31.73,145.98-3.71,50.46,31.05,95.79,80.84,104.81,22.47,4.07,45.02,5.98,66.9,5.98h0c21.97,0,44.4-1.88,66.71-5.92,49.78-9.01,84.51-54.35,80.8-104.8-5.33-72.44-18.16-111.11-31.74-146.02Z"/>
          <path class="cls-14" d="M614.46,668.41c-3.78-78.18-28.79-137.17-28.79-137.17l-73.63,17.42-73.71-17.44s-25.01,58.99-28.79,137.17c-3.36,69.42,55.03,94.31,102.36,94.38v.02c47.36,0,105.93-24.86,102.56-94.38Z"/>
          <path class="cls-8" d="M627.89,526.59l-115.79-26.61v-.07l-.14.03h-.06s0,.01,0,.01l-115.79,26.61c-13.25,34.07-25.79,71.72-31.34,140.83-4.38,54.61,35.35,102.77,89.79,108.89,19.28,2.17,38.54,2.76,57.33,2.25h0c18.84.53,38.16-.06,57.5-2.23,54.45-6.12,94.21-54.27,89.83-108.89-5.55-69.11-18.09-106.76-31.34-140.83Z"/>
          <rect class="cls-21" x="711.91" y="451.77" width="122.69" height="96.34" rx="16.83" ry="16.83" transform="translate(1507.73 -55.4) rotate(110.02)"/>
          <path class="cls-22" d="M536.87,285.58c-29.69,50.65-4.15,101,40.01,123.35,44.15,22.36,71.6,48.58,101.45-1.99,49.57-83.98,18.91-175.2-5.4-187.71-24.76-12.75-106.83,16.49-136.06,66.34Z"/>
          <path class="cls-11" d="M570.18,294.23c-18.92,32.29-2.71,64.35,25.37,78.57,28.07,14.21,45.52,30.9,64.54-1.33,31.59-53.54,12.15-111.64-3.31-119.59-15.74-8.11-67.97,10.58-86.6,42.36Z"/>
          <path class="cls-18" d="M536.87,285.58c-29.69,50.65-4.15,101,40.01,123.35,44.15,22.36,71.6,48.58,101.45-1.99,49.57-83.98,18.91-175.2-5.4-187.71-24.76-12.75-106.83,16.49-136.06,66.34Z"/>
          <path class="cls-22" d="M487.13,285.57c29.69,50.65,4.15,101-40.01,123.35-44.15,22.36-71.6,48.58-101.45-1.99-49.57-83.98-18.91-175.2,5.4-187.71,24.76-12.75,106.83,16.49,136.06,66.34Z"/>
          <path class="cls-11" d="M453.82,294.21c18.92,32.29,2.71,64.35-25.37,78.57-28.07,14.21-45.52,30.9-64.54-1.33-31.59-53.54-12.15-111.64,3.31-119.59,15.74-8.11,67.97,10.58,86.6,42.36Z"/>
          <path class="cls-17" d="M487.13,285.57c29.69,50.65,4.15,101-40.01,123.35-44.15,22.36-71.6,48.58-101.45-1.99-49.57-83.98-18.91-175.2,5.4-187.71,24.76-12.75,106.83,16.49,136.06,66.34Z"/>
          <path class="cls-19" d="M676.42,428.42c0-86.54-73.57-156.69-164.32-156.69s-164.32,70.15-164.32,156.69c0,11.91,1.4,23.51,4.04,34.67-2.64,7.11-4.04,14.51-4.04,22.11,0,55.18,73.56,99.92,164.31,99.92h0s0,0,0,0c90.74,0,164.3-44.74,164.3-99.92,0-7.59-1.4-14.98-4.04-22.09,2.64-11.16,4.05-22.76,4.05-34.68Z"/>
          <path class="cls-4" d="M512.11,454.73l-16.13-.83c-9.28-80.9-25.12-104.5-61.51-104.5h0c-29.17,0-63.17,25.8-54.51,100.96-10.82,5.9-13.85,21.75-13.85,34.37,0,31.79,40.52,82.47,145.78,84.28l.22-114.28Z"/>
          <path class="cls-20" d="M511.64,454.73l16.13-.83c9.28-80.9,25.12-104.5,61.51-104.5h0c29.17,0,63.17,25.8,54.51,100.96,10.82,5.9,13.85,21.75,13.85,34.37,0,31.79-40.52,82.47-145.78,84.28l-.22-114.28Z"/>
          <ellipse class="cls-2" cx="440.77" cy="425.47" rx="27.46" ry="32.29"/>
          <ellipse class="cls-6" cx="447.87" cy="410.19" rx="7.1" ry="8.42"/>
          <circle class="cls-23" cx="431.71" cy="440.11" r="5.14"/>
          <ellipse class="cls-23" cx="416.17" cy="490.33" rx="22.16" ry="13.1"/>
          <rect class="cls-5" x="189.4" y="451.75" width="122.69" height="96.34" rx="16.83" ry="16.83" transform="translate(634.59 93.15) rotate(69.98)"/>
          <ellipse class="cls-2" cx="583.23" cy="425.49" rx="27.46" ry="32.29"/>
          <ellipse class="cls-6" cx="590.33" cy="410.21" rx="7.1" ry="8.42"/>
          <path class="cls-23" d="M579.32,440.13c0,2.84-2.3,5.14-5.14,5.14-2.84,0-5.14-2.3-5.14-5.14s2.3-5.14,5.14-5.14,5.14,2.3,5.14,5.14Z"/>
          <ellipse class="cls-23" cx="607.83" cy="490.35" rx="22.16" ry="13.1"/>
          <path class="cls-13" d="M511.92,496.82c-6.27,9.67-30.23,11.35-33.45-3.11"/>
          <path class="cls-13" d="M512.08,496.82c6.27,9.67,30.23,11.35,33.45-3.11"/>
          <path class="cls-2" d="M493.84,452.52c0-5.95,8.18-10.77,18.27-10.77s18.27,4.82,18.27,10.77-8.18,15.55-18.27,15.55-18.27-9.6-18.27-15.55Z"/>
        </g>
        <path class="cls-1" d="M480.67,756.89l145.31-45.06v.02c5.27-1.92,10.96-2.97,16.87-2.97,27.27,0,49.44,22.17,49.44,49.44,0,27.27-22.17,49.44-49.44,49.44h-157.13c-14.15,0-25.65-11.5-25.65-25.65,0-12.44,8.85-22.88,20.61-25.21Z"/>
        <path class="cls-7" d="M480.67,756.89l145.31-45.06v.02c5.27-1.92,10.96-2.97,16.87-2.97,27.27,0,49.44,22.17,49.44,49.44,0,27.27-22.17,49.44-49.44,49.44h-157.13c-14.15,0-25.65-11.5-25.65-25.65,0-12.44,8.85-22.88,20.61-25.21Z"/>
        <g class="cls-26">
          <path class="cls-10" d="M512,747.18s62.66,6.49,64.17,38.58c1.51,32.09-27.93,40.19-27.93,40.19l-77.71,2.2-3.63-8.17"/>
        </g>
        <g>
          <path class="cls-24" d="M543.33,756.89l-145.31-45.06v.02c-5.27-1.92-10.96-2.97-16.87-2.97-27.27,0-49.44,22.17-49.44,49.44s22.17,49.44,49.44,49.44h157.13c14.15,0,25.65-11.5,25.65-25.65,0-12.44-8.85-22.88-20.61-25.21Z"/>
          <path class="cls-9" d="M543.33,756.89l-145.31-45.06v.02c-5.27-1.92-10.96-2.97-16.87-2.97-27.27,0-49.44,22.17-49.44,49.44s22.17,49.44,49.44,49.44h157.13c14.15,0,25.65-11.5,25.65-25.65,0-12.44-8.85-22.88-20.61-25.21Z"/>
        </g>
      </g>
    </g>
  </g>
</svg>