<svg version="1.1" xmlns="http://www.w3.org/2000/svg" style="display: block;" viewBox="0 0 2048 2048" width="575" height="575" preserveAspectRatio="none">
<defs>
	<linearGradient id="Gradient1" gradientUnits="userSpaceOnUse" x1="189.392" y1="912.543" x2="204.512" y2="958.169">
		<stop class="stop0" offset="0" stop-opacity="1" stop-color="rgb(6,20,52)"/>
		<stop class="stop1" offset="1" stop-opacity="1" stop-color="rgb(27,54,103)"/>
	</linearGradient>
	<linearGradient id="Gradient2" gradientUnits="userSpaceOnUse" x1="1638.55" y1="253.832" x2="1652.23" y2="296.504">
		<stop class="stop0" offset="0" stop-opacity="1" stop-color="rgb(6,20,53)"/>
		<stop class="stop1" offset="1" stop-opacity="1" stop-color="rgb(24,45,95)"/>
	</linearGradient>
	<linearGradient id="Gradient3" gradientUnits="userSpaceOnUse" x1="1022.3" y1="1321.42" x2="962.852" y2="1560.69">
		<stop class="stop0" offset="0" stop-opacity="1" stop-color="rgb(0,0,2)"/>
		<stop class="stop1" offset="1" stop-opacity="1" stop-color="rgb(0,0,23)"/>
	</linearGradient>
	<linearGradient id="Gradient4" gradientUnits="userSpaceOnUse" x1="1409.98" y1="1270.89" x2="1425.4" y2="1236.24">
		<stop class="stop0" offset="0" stop-opacity="1" stop-color="rgb(9,23,54)"/>
		<stop class="stop1" offset="1" stop-opacity="1" stop-color="rgb(27,51,86)"/>
	</linearGradient>
</defs>
<path transform="translate(0,0)" fill="rgb(0,0,0)" d="M 0 0 L 2048 0 L 2048 2048 L 0 2048 L 0 0 z"/>
<path transform="translate(0,0)" fill="rgb(0,0,21)" d="M 1111.45 438.322 C 1142.33 394.806 1204.5 333.157 1252.65 310.09 C 1264.16 304.594 1276.41 300.771 1289.01 298.739 C 1378.23 283.64 1406.91 413.376 1421.51 477.915 C 1421.91 479.67 1422.11 482.063 1422.27 483.844 L 1422.57 484.509 C 1425.4 497.435 1427.08 512.24 1428.42 525.422 C 1429.19 529.58 1430.07 537.852 1428.94 541.976 C 1431.42 563.066 1432.06 584.331 1430.85 605.531 C 1430.06 619.126 1424.35 664.965 1427.7 673.996 C 1436.53 697.775 1450.27 723.796 1457.78 749.891 C 1462.89 767.878 1467.03 786.128 1470.18 804.561 C 1475.45 835.941 1474.77 844.98 1489.63 873.563 C 1554.49 998.279 1464.75 1134.62 1351.15 1190.17 C 1339.27 1196.02 1322.11 1203.49 1311.39 1209.99 L 1311.24 1213.43 C 1315.12 1217.02 1325.08 1222.69 1330.06 1226.02 C 1372.51 1254.49 1427.92 1277.96 1479.21 1280.4 C 1494.28 1280.25 1509.36 1280.15 1524.39 1279.5 C 1538.72 1278.88 1556.35 1274.64 1570.53 1276.69 C 1639.41 1286.66 1657.57 1361.11 1621.32 1413.19 C 1600.21 1445.22 1548.23 1474.1 1510.97 1480.84 C 1502.26 1482.52 1485.16 1486.76 1477.36 1487.23 C 1446.61 1490.01 1423.54 1488.76 1393.09 1487.38 C 1390.17 1487.21 1380.8 1483.13 1377.06 1481.75 C 1377.83 1493.5 1381.1 1528.29 1386.91 1537.91 C 1391.26 1539.68 1401.45 1542.73 1404.14 1544.09 C 1427.36 1555.83 1455.4 1582.17 1465.55 1606.03 C 1465.88 1606.82 1466.2 1607.61 1466.5 1608.4 C 1473.84 1606.28 1483.48 1598.15 1491.01 1594.7 C 1541.7 1571.46 1605.05 1591.8 1614.59 1651.47 C 1615.46 1656.91 1616.49 1662.34 1617.1 1667.82 C 1618.79 1672.14 1619.17 1694.63 1617.12 1698.78 C 1612.53 1756.98 1586.45 1820.2 1541.68 1858.65 C 1533.97 1865.28 1519.08 1876.71 1509.15 1879.45 C 1503.99 1879.68 1495.71 1885.05 1491.29 1885.4 C 1438.31 1889.55 1381.82 1880.77 1329.44 1873.12 C 1307.77 1869.96 1233.31 1865.23 1220.43 1856.8 C 1215.06 1858.7 1211.97 1861.15 1207.35 1863.58 C 1198.75 1868.1 1171.89 1879.37 1163.76 1879.63 C 1158.64 1881.31 1153.3 1883.16 1148.15 1884.68 C 1142.93 1886.33 1140.24 1886.39 1134.71 1885.84 C 1131.67 1887.1 1128.58 1888.61 1125.3 1888.37 C 1118.53 1891.62 1106.51 1904.7 1100.49 1910.48 C 1091.31 1919.29 1066.28 1936.78 1053.08 1935.94 C 1048.51 1936.33 1043.33 1938.05 1038.46 1938.54 C 999.777 1942.47 960.157 1936.57 921.819 1931.35 C 911.937 1930 901.518 1929.54 891.825 1927.54 C 889.638 1926.64 874.721 1924.65 871.527 1924.33 C 854.905 1922.64 839.552 1919.61 823.206 1916.2 C 816.608 1914.82 814.319 1915.67 807.724 1912.85 C 806.809 1912.28 807.387 1912.56 805.817 1912.22 C 801.097 1911.17 796.389 1910.06 791.697 1908.9 C 755.794 1900.21 716.498 1876.8 690.048 1851.5 C 682.982 1845.77 677.575 1845.72 669.931 1850.33 C 666.814 1852.51 664.972 1850.84 660.444 1852.78 C 657.86 1854.14 654.614 1855.81 651.821 1856.64 C 580.366 1877.81 475.91 1883.44 408.728 1849.3 C 396.301 1842.6 383.976 1837.58 371.506 1830.23 C 273.721 1772.6 220.344 1644.53 283.573 1540.79 C 283.948 1539.8 283.743 1540.22 284.665 1538.9 C 304.148 1511.03 327.624 1494.67 360.588 1487.99 C 368.475 1486.1 396.467 1485.96 403.803 1488.09 C 473.076 1505.06 491.345 1551.93 510.154 1614.2 C 516.587 1635.5 524.921 1657.73 540.656 1673.52 C 555.606 1688.52 572.131 1699.86 592.881 1704.56 C 597.572 1705.63 600.885 1707.38 605.946 1707.45 C 610.775 1704.02 606.884 1687.14 606.049 1681.82 C 584.688 1545.58 652.636 1414.31 702.706 1292.03 C 711.445 1270.68 716.181 1240.45 721.374 1217.67 L 722.371 1212.33 C 717.714 1208.99 710.688 1203.34 705.123 1202.95 C 668.322 1185.22 641.018 1169.22 610.525 1141.13 C 556.989 1092.04 527.506 1019.52 520.249 948.353 C 518.684 932.783 514.929 915.382 515.717 899.837 C 517.92 857.987 523.266 815.895 536.7 776.025 C 538.76 769.91 546.902 746.225 546.234 740.928 C 541.294 701.76 529.712 665.836 531.077 625.635 C 530.011 621.414 530.273 581.353 531.067 576.675 C 529.983 553.077 531.581 539.723 535.829 516.292 C 546.876 455.36 563.773 386.435 605.225 338.487 C 625.842 314.639 664.522 309.997 693.721 317.961 C 746.676 335.545 797.334 375.678 837.282 413.86 C 850.289 426.291 862.832 442.193 875.908 455.336 C 883.492 451.874 902.721 448.172 911.331 446.11 C 964.437 433.386 1014.5 435.384 1068.48 435.886 C 1081.99 436.011 1097.94 442.231 1111.45 438.322 z"/>
<path transform="translate(0,0)" fill="rgb(15,30,66)" d="M 1111.45 438.322 C 1142.33 394.806 1204.5 333.157 1252.65 310.09 C 1264.16 304.594 1276.41 300.771 1289.01 298.739 C 1378.23 283.64 1406.91 413.376 1421.51 477.915 C 1421.91 479.67 1422.11 482.063 1422.27 483.844 C 1417.83 477.031 1414.54 456.026 1412.08 446.691 C 1401.71 404.884 1379.95 339.223 1343.59 314.219 C 1270.11 263.683 1149.3 386.961 1111.99 443.011 L 1110.46 444.68 C 1050.22 439.338 997.326 436.554 936.576 446.058 C 912.695 449.794 898.793 454.829 876.866 459.73 L 874.641 460.458 C 862.331 448.811 850.655 431.482 838.635 419.732 C 799.232 381.217 718.661 316.421 661.723 317.789 C 575.933 319.849 547.953 462.096 536.21 527.446 C 533.355 541.742 535.197 566.419 531.067 576.675 C 529.983 553.077 531.581 539.723 535.829 516.292 C 546.876 455.36 563.773 386.435 605.225 338.487 C 625.842 314.639 664.522 309.997 693.721 317.961 C 746.676 335.545 797.334 375.678 837.282 413.86 C 850.289 426.291 862.832 442.193 875.908 455.336 C 883.492 451.874 902.721 448.172 911.331 446.11 C 964.437 433.386 1014.5 435.384 1068.48 435.886 C 1081.99 436.011 1097.94 442.231 1111.45 438.322 z"/>
<path transform="translate(0,0)" fill="rgb(15,30,66)" d="M 721.374 1217.67 C 724.984 1231.31 707.007 1287.29 701.051 1303.19 C 696.021 1316.61 686.893 1336.66 680.985 1350.32 C 669.219 1377.34 657.942 1404.56 647.161 1431.99 C 617.032 1510.25 598.8 1588.71 606.598 1672.33 C 607.383 1680.74 613.271 1704.29 611.044 1710.95 C 605.872 1713.19 589.016 1707.48 582.988 1705.5 C 515.324 1683.36 512.992 1619.08 489.307 1562.42 C 474.557 1527.13 439.336 1496.94 399.319 1491.35 C 389.991 1490.6 377.408 1490.74 368.18 1491.31 C 363.786 1490.6 363.88 1490.82 360.588 1487.99 C 368.475 1486.1 396.467 1485.96 403.803 1488.09 C 473.076 1505.06 491.345 1551.93 510.154 1614.2 C 516.587 1635.5 524.921 1657.73 540.656 1673.52 C 555.606 1688.52 572.131 1699.86 592.881 1704.56 C 597.572 1705.63 600.885 1707.38 605.946 1707.45 C 610.775 1704.02 606.884 1687.14 606.049 1681.82 C 584.688 1545.58 652.636 1414.31 702.706 1292.03 C 711.445 1270.68 716.181 1240.45 721.374 1217.67 z"/>
<path transform="translate(0,0)" fill="rgb(15,30,66)" d="M 1428.94 541.976 C 1431.42 563.066 1432.06 584.331 1430.85 605.531 C 1430.06 619.126 1424.35 664.965 1427.7 673.996 C 1436.53 697.775 1450.27 723.796 1457.78 749.891 C 1462.89 767.878 1467.03 786.128 1470.18 804.561 C 1475.45 835.941 1474.77 844.98 1489.63 873.563 C 1554.49 998.279 1464.75 1134.62 1351.15 1190.17 C 1339.27 1196.02 1322.11 1203.49 1311.39 1209.99 L 1309.2 1206.79 C 1311.15 1206.34 1323.47 1199.74 1326.32 1198.4 C 1358.56 1183.15 1383.95 1167.69 1411.56 1145.71 C 1477.57 1093.17 1526.97 1002.95 1503.6 917.435 C 1500.55 907.802 1496.26 890.884 1491.02 882.549 C 1476.19 858.925 1473.99 844.396 1470.36 817.289 C 1467.33 794.755 1460.59 768.468 1454.09 746.559 C 1450.43 734.222 1444.54 720.649 1439.87 708.481 C 1436.47 697.922 1425.83 682.396 1424.27 671.779 C 1421.91 655.742 1427.38 633.876 1428.16 617.55 C 1429.3 593.676 1426.2 566.531 1428.79 543.313 L 1428.94 541.976 z"/>
<path transform="translate(0,0)" fill="rgb(15,30,66)" d="M 1163.67 1875.32 C 1168.36 1874 1176.62 1870.84 1180.8 1869.98 C 1191.78 1867.7 1214.23 1851.74 1224.2 1854.88 C 1228 1857.03 1314.19 1865.59 1324.64 1867.02 L 1394.06 1876.08 C 1414.15 1878.74 1436.49 1882.1 1456.68 1882.87 C 1470.73 1883.4 1484.78 1881.77 1498.33 1878.04 C 1501.17 1877.25 1503.99 1876.38 1506.77 1875.43 L 1509.15 1879.45 C 1503.99 1879.68 1495.71 1885.05 1491.29 1885.4 C 1438.31 1889.55 1381.82 1880.77 1329.44 1873.12 C 1307.77 1869.96 1233.31 1865.23 1220.43 1856.8 C 1215.06 1858.7 1211.97 1861.15 1207.35 1863.58 C 1198.75 1868.1 1171.89 1879.37 1163.76 1879.63 L 1163.67 1875.32 z"/>
<path transform="translate(0,0)" fill="rgb(15,30,66)" d="M 1479.21 1280.4 C 1494.28 1280.25 1509.36 1280.15 1524.39 1279.5 C 1538.72 1278.88 1556.35 1274.64 1570.53 1276.69 C 1639.41 1286.66 1657.57 1361.11 1621.32 1413.19 C 1600.21 1445.22 1548.23 1474.1 1510.97 1480.84 C 1508.67 1479.9 1509.31 1480.31 1507.53 1478.84 L 1508 1476.13 C 1547.15 1466.59 1596.86 1444.69 1619.66 1409.79 C 1642.26 1376.45 1645.06 1331.82 1614.99 1302.17 C 1589.7 1277.23 1562.87 1279.1 1530.14 1282.98 C 1529.47 1282.96 1528.8 1282.94 1528.13 1282.91 C 1520.42 1278.27 1488.36 1283.57 1479.21 1280.4 z"/>
<path transform="translate(0,0)" fill="rgb(15,30,66)" d="M 531.077 625.635 C 534.101 630.521 537.264 697.093 543.791 710.182 C 549.82 722.272 550.458 751.536 543.527 762.299 C 498.79 874.981 513.639 1057.63 613.414 1139.94 L 610.525 1141.13 C 556.989 1092.04 527.506 1019.52 520.249 948.353 C 518.684 932.783 514.929 915.382 515.717 899.837 C 517.92 857.987 523.266 815.895 536.7 776.025 C 538.76 769.91 546.902 746.225 546.234 740.928 C 541.294 701.76 529.712 665.836 531.077 625.635 z"/>
<path transform="translate(0,0)" fill="rgb(6,16,47)" d="M 413.841 1847.2 C 422.303 1851.16 434.276 1854.1 442.948 1856.78 C 514.207 1878.73 587.969 1870.07 658.445 1850.19 C 659.587 1849.86 660.22 1852.19 660.444 1852.78 C 657.86 1854.14 654.614 1855.81 651.821 1856.64 C 580.366 1877.81 475.91 1883.44 408.728 1849.3 C 410.309 1848.85 412.287 1847.88 413.841 1847.2 z"/>
<path transform="translate(0,0)" fill="rgb(15,30,66)" d="M 283.573 1540.79 L 285.173 1543.84 C 276.812 1558.21 269.935 1571.82 265.514 1588.05 C 246.059 1659.47 272.931 1743.52 328.462 1792.05 C 334.121 1797 339.43 1804.02 345.441 1808.76 C 366.959 1822.79 389.124 1839.72 413.841 1847.2 C 412.287 1847.88 410.309 1848.85 408.728 1849.3 C 396.301 1842.6 383.976 1837.58 371.506 1830.23 C 273.721 1772.6 220.344 1644.53 283.573 1540.79 z"/>
<path transform="translate(0,0)" fill="url(#Gradient4)" d="M 1528.13 1282.91 C 1518.87 1284.53 1508.81 1284.07 1499.48 1284.29 C 1470.29 1284.98 1447.5 1284.56 1419.1 1274.82 C 1384.39 1262.91 1348.57 1246.54 1318.98 1224.65 C 1314.85 1221.59 1308.17 1217.3 1305.93 1212.91 C 1306.22 1208.98 1305.96 1210.35 1309.2 1206.79 L 1311.39 1209.99 L 1311.24 1213.43 C 1315.12 1217.02 1325.08 1222.69 1330.06 1226.02 C 1372.51 1254.49 1427.92 1277.96 1479.21 1280.4 C 1488.36 1283.57 1520.42 1278.27 1528.13 1282.91 z"/>
<path transform="translate(0,0)" fill="rgb(15,30,66)" d="M 1466.5 1608.4 C 1473.84 1606.28 1483.48 1598.15 1491.01 1594.7 C 1541.7 1571.46 1605.05 1591.8 1614.59 1651.47 C 1615.46 1656.91 1616.49 1662.34 1617.1 1667.82 L 1616.84 1668.13 C 1614.74 1665.76 1609.12 1636.55 1604.62 1628.58 C 1583.31 1589.78 1528.23 1580.74 1491.05 1600.59 C 1486.47 1603.03 1470.24 1613.45 1466.71 1612.27 L 1465.11 1608.73 L 1466.5 1608.4 z"/>
<path transform="translate(0,0)" fill="rgb(15,30,66)" d="M 896.75 1923.48 C 923.929 1926.55 1027.84 1940.5 1049.97 1933.13 L 1053.08 1935.94 C 1048.51 1936.33 1043.33 1938.05 1038.46 1938.54 C 999.777 1942.47 960.157 1936.57 921.819 1931.35 C 911.937 1930 901.518 1929.54 891.825 1927.54 C 893.138 1925.34 894.526 1924.85 896.75 1923.48 z"/>
<path transform="translate(0,0)" fill="rgb(15,30,66)" d="M 1506.77 1875.43 C 1568.47 1853.17 1608.93 1764.76 1615.31 1703.1 C 1615.64 1699.96 1614.95 1700.75 1616.36 1697.67 L 1617.12 1698.78 C 1612.53 1756.98 1586.45 1820.2 1541.68 1858.65 C 1533.97 1865.28 1519.08 1876.71 1509.15 1879.45 L 1506.77 1875.43 z"/>
<path transform="translate(0,0)" fill="rgb(15,30,66)" d="M 1465.11 1608.73 C 1461.64 1603.97 1458.85 1598.53 1454.95 1593.36 C 1441.57 1575.59 1425.55 1560.63 1405.96 1549.95 C 1398.29 1545.77 1390.33 1544.03 1382.83 1539.76 C 1381.18 1534.74 1371.87 1482.75 1372.89 1479.9 C 1375.75 1480.71 1375.62 1480.09 1377.06 1481.75 C 1377.83 1493.5 1381.1 1528.29 1386.91 1537.91 C 1391.26 1539.68 1401.45 1542.73 1404.14 1544.09 C 1427.36 1555.83 1455.4 1582.17 1465.55 1606.03 C 1465.88 1606.82 1466.2 1607.61 1466.5 1608.4 L 1465.11 1608.73 z"/>
<path transform="translate(0,0)" fill="rgb(6,16,47)" d="M 613.414 1139.94 C 629.013 1151.2 644.115 1163.98 660.301 1174.06 C 674.904 1183.15 691.965 1190.26 707.058 1198.45 C 712.63 1201.16 718.376 1202.84 722.66 1206.72 C 723.595 1210.15 723.429 1208.36 722.371 1212.33 C 717.714 1208.99 710.688 1203.34 705.123 1202.95 C 668.322 1185.22 641.018 1169.22 610.525 1141.13 L 613.414 1139.94 z"/>
<path transform="translate(0,0)" fill="rgb(6,16,47)" d="M 692.875 1849.75 C 730.173 1877.5 745.81 1890.55 792.983 1904.19 L 791.697 1908.9 C 755.794 1900.21 716.498 1876.8 690.048 1851.5 L 692.875 1849.75 z"/>
<path transform="translate(0,0)" fill="rgb(6,16,47)" d="M 807.724 1912.85 C 810.586 1909.38 808.868 1910.44 812.76 1909.13 C 839.229 1916.47 871.389 1917.63 896.75 1923.48 C 894.526 1924.85 893.138 1925.34 891.825 1927.54 C 889.638 1926.64 874.721 1924.65 871.527 1924.33 C 854.905 1922.64 839.552 1919.61 823.206 1916.2 C 816.608 1914.82 814.319 1915.67 807.724 1912.85 z"/>
<path transform="translate(0,0)" fill="rgb(15,30,66)" d="M 283.573 1540.79 C 283.948 1539.8 283.743 1540.22 284.665 1538.9 C 304.148 1511.03 327.624 1494.67 360.588 1487.99 C 363.88 1490.82 363.786 1490.6 368.18 1491.31 C 337.082 1495.44 308.966 1511.95 290.204 1537.09 C 288.511 1539.33 286.834 1541.58 285.173 1543.84 L 283.573 1540.79 z"/>
<path transform="translate(0,0)" fill="rgb(15,30,66)" d="M 1049.97 1933.13 C 1068.26 1927.84 1077.25 1923.34 1092.84 1912.9 C 1101.04 1907.41 1118.61 1882.31 1124.65 1885.79 L 1125.3 1888.37 C 1118.53 1891.62 1106.51 1904.7 1100.49 1910.48 C 1091.31 1919.29 1066.28 1936.78 1053.08 1935.94 L 1049.97 1933.13 z"/>
<path transform="translate(0,0)" fill="rgb(6,16,47)" d="M 1410.45 1484.07 C 1418.25 1483.76 1429.91 1485.3 1438.94 1485.36 C 1445.45 1485.41 1459.52 1483.8 1463.89 1484.09 C 1466.34 1488.23 1472.71 1487.16 1477.36 1487.23 C 1446.61 1490.01 1423.54 1488.76 1393.09 1487.38 C 1399.48 1486.39 1405.9 1488.8 1410.45 1484.07 z"/>
<path transform="translate(0,0)" fill="rgb(15,30,66)" d="M 1463.89 1484.09 C 1479.24 1481.95 1492.86 1479.88 1508 1476.13 L 1507.53 1478.84 C 1509.31 1480.31 1508.67 1479.9 1510.97 1480.84 C 1502.26 1482.52 1485.16 1486.76 1477.36 1487.23 C 1472.71 1487.16 1466.34 1488.23 1463.89 1484.09 z"/>
<path transform="translate(0,0)" fill="rgb(15,30,66)" d="M 1372.89 1479.9 C 1377.01 1478.26 1403.53 1483.17 1410.45 1484.07 C 1405.9 1488.8 1399.48 1486.39 1393.09 1487.38 C 1390.17 1487.21 1380.8 1483.13 1377.06 1481.75 C 1375.62 1480.09 1375.75 1480.71 1372.89 1479.9 z"/>
<path transform="translate(0,0)" fill="rgb(15,30,66)" d="M 669.931 1850.33 C 666.211 1850.15 667.712 1850.8 665.045 1848.96 L 665.708 1847.31 C 675.832 1840 684.9 1839.87 692.875 1849.75 L 690.048 1851.5 C 682.982 1845.77 677.575 1845.72 669.931 1850.33 z"/>
<path transform="translate(0,0)" fill="rgb(6,16,47)" d="M 1144.06 1880.27 C 1148.79 1878.67 1158.47 1876.6 1163.67 1875.32 L 1163.76 1879.63 C 1158.64 1881.31 1153.3 1883.16 1148.15 1884.68 C 1147.05 1883.22 1145.36 1881.61 1144.06 1880.27 z"/>
<path transform="translate(0,0)" fill="rgb(6,16,47)" d="M 792.983 1904.19 C 798.498 1905.47 807.73 1907.34 812.76 1909.13 C 808.868 1910.44 810.586 1909.38 807.724 1912.85 C 806.809 1912.28 807.387 1912.56 805.817 1912.22 C 801.097 1911.17 796.389 1910.06 791.697 1908.9 L 792.983 1904.19 z"/>
<path transform="translate(0,0)" fill="rgb(15,30,66)" d="M 1428.42 525.422 C 1427.86 529.155 1427.82 531.949 1427.7 535.736 C 1426.2 528.847 1422.18 491.112 1422.57 484.509 C 1425.4 497.435 1427.08 512.24 1428.42 525.422 z"/>
<path transform="translate(0,0)" fill="rgb(15,30,66)" d="M 1134.71 1885.84 C 1133.78 1884.88 1134.28 1885.53 1133.5 1883.71 C 1135.76 1881.55 1140.76 1880.98 1144.06 1880.27 C 1145.36 1881.61 1147.05 1883.22 1148.15 1884.68 C 1142.93 1886.33 1140.24 1886.39 1134.71 1885.84 z"/>
<path transform="translate(0,0)" fill="rgb(159,218,242)" d="M 631.057 360.521 C 642.574 350.796 653.67 346.17 669.061 347.413 C 727.786 352.156 811.276 431.338 848.155 475.35 C 855.362 483.951 868.04 508.052 880.061 508.556 C 882.955 508.677 884.877 507.921 886.897 505.84 C 892.106 500.475 890.969 491.755 890.237 485.09 C 919.6 478.913 950.742 472.167 980.607 469.448 C 1074.51 460.897 1182.11 482.845 1261.58 534.809 C 1351.45 594.416 1413.91 687.34 1435.16 793.068 C 1437.65 805.216 1439.66 817.456 1441.19 829.762 C 1442.16 837.198 1443.72 852.303 1445.94 858.878 C 1450.21 871.487 1459.43 884.743 1464.92 897.194 C 1485.48 943.805 1483.8 983.561 1464.7 1030.02 C 1426.63 1116.15 1350.04 1160.02 1266.58 1193.56 C 1249.63 1200.38 1231.56 1203.09 1215.5 1210.02 C 1204.98 1214.55 1201.58 1229.88 1216.17 1233.87 C 1231.22 1238 1251.5 1230.72 1265.42 1225.69 C 1266.7 1231.68 1268.05 1237.67 1269.45 1243.63 C 1275.42 1266.65 1282.36 1289.4 1290.24 1311.84 C 1298.16 1334.25 1308.71 1361.09 1313.79 1384.2 C 1328.92 1429.47 1342.56 1472.86 1348.79 1520.5 C 1350 1529.8 1352.15 1544.72 1352.07 1553.7 C 1354.81 1574.12 1351.62 1611.56 1347.79 1631.74 C 1345.53 1643.66 1340.46 1661.05 1340.05 1672.56 C 1336.84 1685.28 1316.71 1745.45 1305.49 1751.73 C 1298.94 1754.91 1267.92 1788.14 1256.36 1797.26 C 1232.68 1815.66 1206.29 1830.29 1178.13 1840.6 C 1165.44 1845.18 1151.01 1848.89 1138.81 1853.88 L 1137.56 1854.4 C 1156.16 1807.41 1158.03 1778.63 1154.48 1729.31 C 1147.11 1697.24 1141.69 1673.24 1115.8 1649.83 C 1098.18 1633.9 1075.21 1628.08 1051.84 1629.57 C 1033.3 1630.75 1002.3 1640.49 989.773 1654.68 C 977.237 1633.56 962.699 1619.23 943.132 1604.34 C 940.324 1603.12 937.045 1600.77 934.384 1599.04 C 913.869 1587.5 895.199 1580.02 871.851 1577.11 C 847.925 1576.68 825.011 1577.47 802.027 1584.95 C 792.336 1588.1 783.952 1590.85 776.213 1597.53 C 765.01 1607.19 771.051 1622.13 785.523 1621.08 C 791.057 1620.39 795.001 1617.27 799.507 1616.18 C 835.219 1602.16 866.222 1602.75 901.435 1617.96 C 929.118 1629.93 952.004 1647.67 967.588 1673.91 L 958.057 1688.93 C 951.942 1701.15 925.325 1752.94 945.248 1763.41 C 965.825 1774.22 966.587 1739.05 972.361 1728.26 C 985.102 1696.25 1010.91 1666.33 1046.75 1660.19 C 1064.36 1657.18 1079.37 1659.91 1094.09 1670.44 C 1096.49 1672.04 1098.81 1674.95 1100.72 1677.17 C 1123.7 1703.77 1127.97 1748.41 1124.32 1782.08 C 1120.51 1817.21 1107.01 1865.02 1077.57 1887.97 C 1050.27 1909.26 1028.87 1908.87 995.709 1906.32 C 979.873 1905.01 964.057 1903.47 948.266 1901.69 C 858.88 1891.94 750.332 1883.67 691.853 1807.87 C 604.95 1695.24 630.611 1554.57 678.611 1432.46 C 705.32 1364.51 743.382 1291.18 751.728 1220.12 C 794.087 1235.95 844.77 1245.86 889.846 1249.97 C 901.415 1251.02 908.093 1243.9 905.483 1233.02 C 902.401 1220.18 874.216 1220.59 864.252 1217.89 C 783.36 1204.48 701.199 1176.02 637.809 1122.52 C 555.512 1048.37 535.917 928.538 556.812 824.005 C 562.206 797.022 572.766 769.361 577.788 743.381 C 580.39 729.921 570.317 698.604 568.334 683.853 C 565.616 663.645 561.385 642.281 560.835 621.561 C 557.846 551.668 570.963 475.116 598.806 410.84 C 601.49 404.644 608.095 390.489 612.333 385.816 C 616.238 377.788 624.111 366.212 631.057 360.521 z"/>
<path transform="translate(0,0)" fill="rgb(92,163,211)" d="M 612.333 385.816 L 613.768 387.219 C 614.918 385.341 615.922 383.762 617.171 381.95 L 618.547 381.872 C 611.606 403.56 599.072 444.76 596.564 466.56 C 590.14 522.394 588.785 675.998 644.352 704.825 C 640.746 719.348 637.332 734.047 633.503 748.494 C 609.693 838.336 617.069 941.763 663.737 1023.15 C 669.192 1032.66 681.128 1049.66 690.21 1056.05 L 694.9 1062.54 C 814.608 1169.71 977.561 1193.53 1131.6 1173.97 C 1242.09 1159.94 1350.85 1132.21 1435.37 1054.64 C 1442.97 1047.67 1454.86 1028.91 1464.7 1030.02 C 1426.63 1116.15 1350.04 1160.02 1266.58 1193.56 C 1249.63 1200.38 1231.56 1203.09 1215.5 1210.02 C 1204.98 1214.55 1201.58 1229.88 1216.17 1233.87 C 1231.22 1238 1251.5 1230.72 1265.42 1225.69 C 1266.7 1231.68 1268.05 1237.67 1269.45 1243.63 C 1275.42 1266.65 1282.36 1289.4 1290.24 1311.84 C 1298.16 1334.25 1308.71 1361.09 1313.79 1384.2 C 1328.92 1429.47 1342.56 1472.86 1348.79 1520.5 C 1350 1529.8 1352.15 1544.72 1352.07 1553.7 C 1354.81 1574.12 1351.62 1611.56 1347.79 1631.74 C 1345.53 1643.66 1340.46 1661.05 1340.05 1672.56 C 1336.84 1685.28 1316.71 1745.45 1305.49 1751.73 C 1298.94 1754.91 1267.92 1788.14 1256.36 1797.26 C 1232.68 1815.66 1206.29 1830.29 1178.13 1840.6 C 1165.44 1845.18 1151.01 1848.89 1138.81 1853.88 L 1137.56 1854.4 C 1156.16 1807.41 1158.03 1778.63 1154.48 1729.31 C 1147.11 1697.24 1141.69 1673.24 1115.8 1649.83 C 1098.18 1633.9 1075.21 1628.08 1051.84 1629.57 C 1033.3 1630.75 1002.3 1640.49 989.773 1654.68 C 977.237 1633.56 962.699 1619.23 943.132 1604.34 C 940.324 1603.12 937.045 1600.77 934.384 1599.04 C 913.869 1587.5 895.199 1580.02 871.851 1577.11 C 847.925 1576.68 825.011 1577.47 802.027 1584.95 C 792.336 1588.1 783.952 1590.85 776.213 1597.53 C 765.01 1607.19 771.051 1622.13 785.523 1621.08 C 791.057 1620.39 795.001 1617.27 799.507 1616.18 C 835.219 1602.16 866.222 1602.75 901.435 1617.96 C 929.118 1629.93 952.004 1647.67 967.588 1673.91 L 958.057 1688.93 C 951.942 1701.15 925.325 1752.94 945.248 1763.41 C 965.825 1774.22 966.587 1739.05 972.361 1728.26 C 985.102 1696.25 1010.91 1666.33 1046.75 1660.19 C 1064.36 1657.18 1079.37 1659.91 1094.09 1670.44 C 1096.49 1672.04 1098.81 1674.95 1100.72 1677.17 C 1123.7 1703.77 1127.97 1748.41 1124.32 1782.08 C 1120.51 1817.21 1107.01 1865.02 1077.57 1887.97 C 1050.27 1909.26 1028.87 1908.87 995.709 1906.32 C 979.873 1905.01 964.057 1903.47 948.266 1901.69 C 858.88 1891.94 750.332 1883.67 691.853 1807.87 C 604.95 1695.24 630.611 1554.57 678.611 1432.46 C 705.32 1364.51 743.382 1291.18 751.728 1220.12 C 794.087 1235.95 844.77 1245.86 889.846 1249.97 C 901.415 1251.02 908.093 1243.9 905.483 1233.02 C 902.401 1220.18 874.216 1220.59 864.252 1217.89 C 783.36 1204.48 701.199 1176.02 637.809 1122.52 C 555.512 1048.37 535.917 928.538 556.812 824.005 C 562.206 797.022 572.766 769.361 577.788 743.381 C 580.39 729.921 570.317 698.604 568.334 683.853 C 565.616 663.645 561.385 642.281 560.835 621.561 C 557.846 551.668 570.963 475.116 598.806 410.84 C 601.49 404.644 608.095 390.489 612.333 385.816 z"/>
<path transform="translate(0,0)" fill="rgb(57,119,167)" d="M 612.333 385.816 L 613.768 387.219 C 614.918 385.341 615.922 383.762 617.171 381.95 L 618.547 381.872 C 611.606 403.56 599.072 444.76 596.564 466.56 C 590.14 522.394 588.785 675.998 644.352 704.825 C 640.746 719.348 637.332 734.047 633.503 748.494 C 609.693 838.336 617.069 941.763 663.737 1023.15 C 669.192 1032.66 681.128 1049.66 690.21 1056.05 L 694.9 1062.54 C 694.559 1079.04 716.981 1112.72 728.831 1125.08 C 767.677 1165.61 820.648 1188.9 872.042 1209.26 C 888.802 1215.9 906.863 1220.56 922.741 1229.02 C 929.123 1232.43 935.594 1236.67 935.268 1244.38 C 935.012 1250.42 933.596 1255.81 931.914 1261.58 C 885.95 1262.36 826.843 1255.31 789.481 1291.89 C 771.22 1309.77 759.115 1342.75 747.262 1365.28 C 710.461 1443.52 678.777 1524.56 681.846 1612.6 C 683.633 1663.87 700.418 1731.59 739.411 1767.96 C 769.862 1796.36 806.14 1812.62 847.075 1819.74 C 858.513 1821.74 883.204 1823.31 892.755 1826.79 C 921.576 1837.3 941.296 1852.19 974.256 1851.13 C 980.665 1850.92 987.025 1849.95 993.205 1848.24 C 994.64 1834.18 995.059 1814.36 997.311 1801.43 C 1005.3 1755.58 1022.13 1710.58 1058.8 1680.43 C 1061.37 1678.33 1063.99 1676.27 1066.63 1674.26 C 1076.59 1670.93 1083.56 1672.4 1093.81 1672.38 L 1094.09 1670.44 C 1096.49 1672.04 1098.81 1674.95 1100.72 1677.17 C 1123.7 1703.77 1127.97 1748.41 1124.32 1782.08 C 1120.51 1817.21 1107.01 1865.02 1077.57 1887.97 C 1050.27 1909.26 1028.87 1908.87 995.709 1906.32 C 979.873 1905.01 964.057 1903.47 948.266 1901.69 C 858.88 1891.94 750.332 1883.67 691.853 1807.87 C 604.95 1695.24 630.611 1554.57 678.611 1432.46 C 705.32 1364.51 743.382 1291.18 751.728 1220.12 C 794.087 1235.95 844.77 1245.86 889.846 1249.97 C 901.415 1251.02 908.093 1243.9 905.483 1233.02 C 902.401 1220.18 874.216 1220.59 864.252 1217.89 C 783.36 1204.48 701.199 1176.02 637.809 1122.52 C 555.512 1048.37 535.917 928.538 556.812 824.005 C 562.206 797.022 572.766 769.361 577.788 743.381 C 580.39 729.921 570.317 698.604 568.334 683.853 C 565.616 663.645 561.385 642.281 560.835 621.561 C 557.846 551.668 570.963 475.116 598.806 410.84 C 601.49 404.644 608.095 390.489 612.333 385.816 z"/>
<path transform="translate(0,0)" fill="rgb(159,218,242)" d="M 1032.29 1365.75 C 1048.98 1335.09 1093.18 1311.57 1125.5 1302.1 C 1164.79 1290.74 1206.99 1295.4 1242.86 1315.08 C 1258.82 1324 1261.06 1327.06 1273.23 1337.88 C 1283.44 1346.97 1305.81 1380.27 1313.79 1384.2 C 1328.92 1429.47 1342.56 1472.86 1348.79 1520.5 C 1350 1529.8 1352.15 1544.72 1352.07 1553.7 C 1354.81 1574.12 1351.62 1611.56 1347.79 1631.74 C 1345.53 1643.66 1340.46 1661.05 1340.05 1672.56 C 1336.84 1685.28 1316.71 1745.45 1305.49 1751.73 C 1298.94 1754.91 1267.92 1788.14 1256.36 1797.26 C 1232.68 1815.66 1206.29 1830.29 1178.13 1840.6 C 1165.44 1845.18 1151.01 1848.89 1138.81 1853.88 L 1137.56 1854.4 C 1156.16 1807.41 1158.03 1778.63 1154.48 1729.31 C 1147.11 1697.24 1141.69 1673.24 1115.8 1649.83 C 1098.18 1633.9 1075.21 1628.08 1051.84 1629.57 C 1033.3 1630.75 1002.3 1640.49 989.773 1654.68 C 977.237 1633.56 962.699 1619.23 943.132 1604.34 C 943.663 1603.67 945.099 1602.35 945.99 1602.55 C 1003.2 1615.37 1063.77 1610.05 1115.96 1582.19 C 1127.4 1576.08 1160.16 1553.92 1150.94 1537.78 C 1195.89 1507.82 1206.94 1450.55 1166.77 1411.7 C 1129.85 1375.98 1076.88 1385.17 1032.29 1365.75 z"/>
<path transform="translate(0,0)" fill="rgb(92,163,211)" d="M 1352.07 1553.7 C 1354.81 1574.12 1351.62 1611.56 1347.79 1631.74 C 1345.53 1643.66 1340.46 1661.05 1340.05 1672.56 C 1336.84 1685.28 1316.71 1745.45 1305.49 1751.73 C 1298.94 1754.91 1267.92 1788.14 1256.36 1797.26 C 1232.68 1815.66 1206.29 1830.29 1178.13 1840.6 C 1165.44 1845.18 1151.01 1848.89 1138.81 1853.88 L 1137.56 1854.4 C 1156.16 1807.41 1158.03 1778.63 1154.48 1729.31 C 1242.82 1723.74 1309.34 1685.66 1339.93 1599.48 C 1347.73 1577.51 1351.22 1579.38 1352.07 1553.7 z"/>
<path transform="translate(0,0)" fill="url(#Gradient3)" d="M 913.346 1324.01 C 907.839 1317.37 901.647 1305.26 908.095 1298.51 C 919.051 1287.04 936.462 1305.06 942.24 1310.84 C 967.616 1336.17 999.328 1352.67 1032.29 1365.75 C 1076.88 1385.17 1129.85 1375.98 1166.77 1411.7 C 1206.94 1450.55 1195.89 1507.82 1150.94 1537.78 C 1160.16 1553.92 1127.4 1576.08 1115.96 1582.19 C 1063.77 1610.05 1003.2 1615.37 945.99 1602.55 C 945.099 1602.35 943.663 1603.67 943.132 1604.34 C 940.324 1603.12 937.045 1600.77 934.384 1599.04 C 913.869 1587.5 895.199 1580.02 871.851 1577.11 C 875.127 1576.99 878.195 1577.36 880.694 1575.53 C 878.466 1572.08 847.614 1546.89 840.032 1538.15 C 829.603 1526.12 803.592 1491.72 804.321 1476.13 C 793.093 1465.53 773.62 1447.75 792.903 1434.96 C 806.511 1430.41 822.578 1452.3 831.676 1461.19 C 900.61 1528.58 1001.64 1555.57 1094.98 1530.22 C 1122.78 1522.65 1155.44 1505.51 1159.92 1473.33 C 1160.56 1465.92 1161.06 1460.18 1158.77 1452.94 C 1142.86 1408.51 1097.68 1414.33 1059.53 1404.85 C 1017.3 1394.36 978.244 1376.27 943.851 1349.45 C 933.404 1341.3 924.062 1331.92 913.346 1324.01 z"/>
<path transform="translate(0,0)" fill="rgb(92,163,211)" d="M 934.805 1556.35 C 1008.58 1574.57 1082.85 1575.16 1150.94 1537.78 C 1160.16 1553.92 1127.4 1576.08 1115.96 1582.19 C 1063.77 1610.05 1003.2 1615.37 945.99 1602.55 C 945.099 1602.35 943.663 1603.67 943.132 1604.34 C 940.324 1603.12 937.045 1600.77 934.384 1599.04 C 935.649 1589.21 930.784 1562.6 934.805 1556.35 z"/>
<path transform="translate(0,0)" fill="rgb(57,119,167)" d="M 804.321 1476.13 C 831.695 1499.41 856.753 1522.55 889.766 1538.56 C 904.49 1545.7 919.441 1550.79 934.805 1556.35 C 930.784 1562.6 935.649 1589.21 934.384 1599.04 C 913.869 1587.5 895.199 1580.02 871.851 1577.11 C 875.127 1576.99 878.195 1577.36 880.694 1575.53 C 878.466 1572.08 847.614 1546.89 840.032 1538.15 C 829.603 1526.12 803.592 1491.72 804.321 1476.13 z"/>
<path transform="translate(0,0)" fill="rgb(113,176,218)" d="M 946.802 1273.59 C 1028.79 1286.04 1109.31 1280.85 1190.93 1267.82 C 1212.18 1264.43 1232.23 1257.84 1251.58 1248.51 C 1257.36 1245.73 1262.99 1242.66 1269.45 1243.63 C 1275.42 1266.65 1282.36 1289.4 1290.24 1311.84 C 1298.16 1334.25 1308.71 1361.09 1313.79 1384.2 C 1305.81 1380.27 1283.44 1346.97 1273.23 1337.88 C 1261.06 1327.06 1258.82 1324 1242.86 1315.08 C 1206.99 1295.4 1164.79 1290.74 1125.5 1302.1 C 1093.18 1311.57 1048.98 1335.09 1032.29 1365.75 C 999.328 1352.67 967.616 1336.17 942.24 1310.84 C 946.725 1303.64 946.466 1283.03 946.802 1273.59 z"/>
<path transform="translate(0,0)" fill="rgb(57,119,167)" d="M 791.499 1360.42 C 805.76 1378.41 817.568 1396.81 832.625 1414.39 C 896.928 1489.46 1004.26 1518.8 1099.55 1499.25 C 1111.83 1496.73 1152.28 1483.46 1159.92 1473.33 C 1155.44 1505.51 1122.78 1522.65 1094.98 1530.22 C 1001.64 1555.57 900.61 1528.58 831.676 1461.19 C 822.578 1452.3 806.511 1430.41 792.903 1434.96 C 784.715 1418.17 785.631 1378.53 791.499 1360.42 z"/>
<path transform="translate(0,0)" fill="rgb(159,218,242)" d="M 913.346 1324.01 C 924.062 1331.92 933.404 1341.3 943.851 1349.45 C 978.244 1376.27 1017.3 1394.36 1059.53 1404.85 C 1097.68 1414.33 1142.86 1408.51 1158.77 1452.94 L 1158.27 1454.99 C 1155.17 1455.35 1139.63 1441.44 1132.96 1439.96 C 1057.67 1423.25 974.507 1417.24 925.118 1348.56 C 920.683 1342.39 910.411 1332.15 913.346 1324.01 z"/>
<path transform="translate(0,0)" fill="rgb(159,218,242)" d="M 799.507 1616.18 C 835.219 1602.16 866.222 1602.75 901.435 1617.96 C 929.118 1629.93 952.004 1647.67 967.588 1673.91 L 958.057 1688.93 C 927.153 1651.94 878.203 1621.2 828.995 1620.15 C 821.462 1619.99 807.679 1619.86 800.699 1618.36 L 799.507 1616.18 z"/>
<path transform="translate(0,0)" fill="rgb(159,218,242)" d="M 972.361 1728.26 C 985.102 1696.25 1010.91 1666.33 1046.75 1660.19 C 1064.36 1657.18 1079.37 1659.91 1094.09 1670.44 L 1093.81 1672.38 C 1083.56 1672.4 1076.59 1670.93 1066.63 1674.26 C 1019.47 1672.6 980.654 1729.57 973.396 1729.62 L 972.361 1728.26 z"/>
<path transform="translate(0,0)" fill="rgb(159,218,242)" d="M 860.555 1643.13 C 882.27 1641.99 909.459 1666.74 886.752 1676.01 C 867.749 1676.51 836.589 1657.26 860.555 1643.13 z"/>
<path transform="translate(0,0)" fill="rgb(92,163,211)" d="M 612.333 385.816 C 616.238 377.788 624.111 366.212 631.057 360.521 C 635.279 363.095 653.639 360.221 660.701 361.638 C 704.023 370.33 742.25 398.445 773.047 428.844 C 785.52 441.381 797.767 454.14 809.782 467.116 C 825.594 484.347 843.885 509.016 865.166 518.147 C 887.49 511.782 905.327 505.145 928.663 501.014 C 1036.63 481.901 1140.66 493.036 1237.28 546.649 C 1289.45 575.739 1333.25 617.766 1364.48 668.685 C 1370.96 679.266 1373.97 686.813 1379.55 697.149 C 1311.44 646.027 1251.86 691.533 1227 762.222 C 1208.75 814.115 1214.4 846.044 1209.87 897.648 C 1197.81 887.558 1175.96 886.662 1160.98 888.649 C 1145.25 890.734 1104.78 893.552 1101.91 913.753 C 1101.29 907.439 1097.34 899.331 1095.16 893.148 C 1063.09 801.842 999.798 683.912 885.544 696.054 C 845.141 700.533 808.168 720.866 782.747 752.587 C 736.653 810.646 736.653 879.3 751.795 948.118 C 703.483 977.116 688.019 998.937 690.21 1056.05 C 681.128 1049.66 669.192 1032.66 663.737 1023.15 C 617.069 941.763 609.693 838.336 633.503 748.494 C 637.332 734.047 640.746 719.348 644.352 704.825 C 588.785 675.998 590.14 522.394 596.564 466.56 C 599.072 444.76 611.606 403.56 618.547 381.872 L 617.171 381.95 C 615.922 383.762 614.918 385.341 613.768 387.219 L 612.333 385.816 z"/>
<path transform="translate(0,0)" fill="rgb(57,119,167)" d="M 656.99 418.504 C 663.49 413.171 666.892 410.084 676.606 411.43 C 696.638 414.204 717.404 437.72 729.806 453.735 C 746.424 475.194 773.896 523.295 773.841 552.213 C 773.829 558.641 753.241 571.115 746.992 575.452 C 727.013 589.195 707.853 604.239 690.675 621.376 C 677.892 634.128 666.876 650.296 653.121 661.733 C 644.793 668.657 636.828 660.114 633.589 652.565 C 610.303 627.731 610.775 541.673 615.093 507.603 C 618.166 483.363 631.957 429.186 656.99 418.504 z"/>
<path transform="translate(0,0)" fill="rgb(0,0,21)" d="M 656.99 418.504 C 663.49 413.171 666.892 410.084 676.606 411.43 C 696.638 414.204 717.404 437.72 729.806 453.735 C 746.424 475.194 773.896 523.295 773.841 552.213 C 773.829 558.641 753.241 571.115 746.992 575.452 C 727.013 589.195 707.853 604.239 690.675 621.376 C 677.892 634.128 666.876 650.296 653.121 661.733 C 644.793 668.657 636.828 660.114 633.589 652.565 C 656.888 602.464 701.931 574.132 743.082 542.628 C 730.228 504.313 709.968 469.101 680.125 441.637 C 674.15 436.139 658.033 425.877 656.99 418.504 z"/>
<path transform="translate(0,0)" fill="rgb(159,218,242)" d="M 1085.42 511.329 C 1108.77 510.938 1167.53 523.936 1181 546.676 C 1186.9 556.624 1175.3 562.319 1167.09 564.945 C 1144.43 567.52 1082.43 556.36 1070.46 529.798 C 1066.65 521.34 1075.99 513.003 1085.42 511.329 z"/>
<path transform="translate(0,0)" fill="rgb(159,218,242)" d="M 1224.5 567.325 C 1237.68 566.941 1259.84 574.901 1254.33 594.129 C 1253.42 597.305 1247.6 599.54 1244.4 600.363 C 1231.55 600.03 1219.77 595.448 1213.56 583.423 C 1209.57 575.695 1217.69 568.898 1224.5 567.325 z"/>
<path transform="translate(0,0)" fill="rgb(0,0,21)" d="M 1101.91 913.753 C 1104.78 893.552 1145.25 890.734 1160.98 888.649 C 1175.96 886.662 1197.81 887.558 1209.87 897.648 C 1212.36 923.284 1185.28 943.079 1162.21 945.084 C 1139.53 947.055 1110.7 936.005 1101.91 913.753 z"/>
<path transform="translate(0,0)" fill="rgb(0,0,21)" d="M 909.169 784.33 C 925.966 782.622 940.379 783.503 955.194 792.349 C 1010.59 825.43 1015.59 932.889 957.71 965.807 C 949.965 970.212 941.674 972.357 933.068 974.344 C 884.446 980.271 854.232 951.484 844.867 905.028 C 834.687 854.531 852.428 794.721 909.169 784.33 z"/>
<path transform="translate(0,0)" fill="rgb(229,248,250)" d="M 936.212 814.024 C 940.973 813.761 945.005 813.819 949.583 815.406 C 957.257 818.117 963.446 823.915 966.652 831.396 C 970.14 839.502 970.293 848.656 967.076 856.874 C 963.727 865.21 958.591 869.568 950.711 873.171 C 916.918 876.537 904.033 828.801 936.212 814.024 z"/>
<path transform="translate(0,0)" fill="rgb(57,119,167)" d="M 883.939 906.173 C 893.428 905.311 899.645 906.255 905.146 915.193 C 908.373 920.37 909.389 926.624 907.969 932.557 C 906.387 938.931 903.478 941.389 898.17 944.605 C 878.379 948.093 865.293 919.487 883.939 906.173 z"/>
<path transform="translate(0,0)" fill="rgb(0,0,21)" d="M 1314.14 753.369 C 1394 749.402 1416.01 917.529 1327.98 931.058 C 1283.75 931.827 1262.76 896.521 1257.48 856.748 C 1251.95 815.097 1264.2 759.083 1314.14 753.369 z"/>
<path transform="translate(0,0)" fill="rgb(229,248,250)" d="M 1330.03 781.257 C 1333.76 781.466 1337.33 782.118 1340.7 783.75 C 1348.19 787.352 1353.79 793.961 1356.11 801.932 C 1361.1 818.618 1353.91 833.594 1336.85 838.237 C 1305.08 837.67 1297.21 789.418 1330.03 781.257 z"/>
<path transform="translate(0,0)" fill="rgb(57,119,167)" d="M 1297.47 867.882 C 1317.61 870.671 1325.2 895.537 1307.42 905.92 C 1284.96 906.217 1278.79 880.101 1297.47 867.882 z"/>
<path transform="translate(0,0)" fill="rgb(0,0,0)" d="M 1250.11 971.621 C 1255.41 973.925 1261.64 977.423 1261.74 983.231 C 1262.3 1014.62 1218.18 1029.02 1192.63 1019.8 C 1183.36 1016.46 1179.99 1013.99 1173 1009.06 C 1167.82 1013.58 1162.92 1017.61 1157.32 1021.63 C 1121.15 1047.61 1073.31 1044.63 1042.9 1010.63 C 1037.93 1003.67 1033.54 993.448 1041.54 987.018 C 1042.69 986.099 1048.56 983.272 1049.68 983.921 C 1064.94 992.735 1074.74 1010.12 1094.05 1012.45 C 1123.68 1016 1137.64 1005.41 1158.71 986.89 C 1177.26 971.216 1188.23 996.779 1207.74 997.991 C 1232.42 999.524 1235.16 982.529 1250.11 971.621 z"/>
<path transform="translate(0,0)" fill="rgb(92,163,211)" d="M 827.842 991.375 C 843.375 989.079 867.628 991.656 880.447 1001.46 C 885.572 1005.18 890.842 1011.69 891.251 1018.39 C 892.752 1042.97 857.681 1048.96 840.257 1050.58 C 763.608 1054.88 753.483 1001.63 827.842 991.375 z"/>
<path transform="translate(0,0)" fill="rgb(92,163,211)" d="M 1396.72 934.274 C 1455.8 926.661 1474.87 975.501 1416.25 985.847 C 1342.33 992.802 1341.42 943.662 1396.72 934.274 z"/>
<path transform="translate(0,0)" fill="rgb(92,163,211)" d="M 311.358 1557.07 C 326.343 1536.09 342.216 1524.88 368.229 1520.47 C 390.692 1516.47 413.813 1521.76 432.308 1535.12 C 475.501 1566.37 475.196 1639.73 506.039 1681.45 C 519.537 1699.71 531.995 1710.27 551.198 1722.32 C 557.843 1725.63 567.668 1730.68 574.525 1732.95 C 591.203 1738.14 603.094 1739.87 620.655 1739.97 C 628.907 1768.1 644.251 1793.41 659.86 1817.87 C 652.823 1821.04 645.613 1823.82 638.264 1826.19 C 500.019 1871.53 309.418 1821.89 289.149 1654.92 C 286.42 1632.44 289.844 1597.2 300.29 1576.84 C 303.451 1569.89 306.652 1563.1 311.358 1557.07 z"/>
<path transform="translate(0,0)" fill="rgb(57,119,167)" d="M 300.29 1576.84 C 303.313 1584.26 303.284 1594.84 304.384 1602.99 C 305.506 1611.09 307.078 1619.12 309.092 1627.04 C 324.772 1687.43 366.319 1737.82 422.618 1764.72 C 455.882 1780.46 505.247 1793.53 541.463 1780.83 C 552.56 1776.94 563.896 1769.67 569.186 1758.82 C 572.994 1751 572.774 1741.52 574.525 1732.95 C 591.203 1738.14 603.094 1739.87 620.655 1739.97 C 628.907 1768.1 644.251 1793.41 659.86 1817.87 C 652.823 1821.04 645.613 1823.82 638.264 1826.19 C 500.019 1871.53 309.418 1821.89 289.149 1654.92 C 286.42 1632.44 289.844 1597.2 300.29 1576.84 z"/>
<path transform="translate(0,0)" fill="rgb(159,218,242)" d="M 311.358 1557.07 C 326.343 1536.09 342.216 1524.88 368.229 1520.47 C 390.692 1516.47 413.813 1521.76 432.308 1535.12 C 475.501 1566.37 475.196 1639.73 506.039 1681.45 C 519.537 1699.71 531.995 1710.27 551.198 1722.32 L 550.559 1724.29 C 546.563 1725.71 537.831 1722.99 533.995 1721.15 C 487.081 1699.83 468.349 1651.25 451.42 1606.71 C 434.98 1563.46 404.382 1535.96 356.424 1543.58 C 338.05 1546.5 330.225 1550.85 313.489 1558.02 L 311.358 1557.07 z"/>
<path transform="translate(0,0)" fill="rgb(159,218,242)" d="M 386.821 1563.04 C 408.53 1562.73 443.069 1592.11 416.234 1610.48 C 390.251 1610.53 361.324 1574.59 386.821 1563.04 z"/>
<path transform="translate(0,0)" fill="rgb(57,119,167)" d="M 1382.17 1570.25 C 1415.35 1584.29 1428.58 1602.44 1446.64 1633.14 C 1442.71 1639.42 1439.13 1644.38 1434.73 1650.36 C 1429.38 1660.07 1414.54 1685.39 1419.56 1693.58 C 1434.93 1718.69 1446.94 1692.31 1451.48 1682.05 C 1456.17 1671.36 1462.38 1661.4 1469.93 1652.49 C 1493.92 1624.14 1537.83 1605.29 1569.94 1632.51 C 1571.34 1633.53 1572.68 1634.4 1573.94 1635.57 C 1614.38 1689.75 1552.03 1848.66 1477.02 1854.26 C 1442.47 1856.84 1403.32 1848.96 1368.69 1845.01 C 1332.3 1840.65 1296.21 1835.21 1260.04 1831.64 C 1273.79 1821.08 1347.84 1765.25 1305.49 1751.73 C 1316.71 1745.45 1336.84 1685.28 1340.05 1672.56 C 1358.67 1693.81 1368.8 1670.6 1374.44 1654.06 C 1378.13 1642.15 1381.33 1605.68 1382.03 1592.58 L 1382.17 1570.25 z"/>
<path transform="translate(0,0)" fill="rgb(92,163,211)" d="M 1382.17 1570.25 C 1415.35 1584.29 1428.58 1602.44 1446.64 1633.14 C 1442.71 1639.42 1439.13 1644.38 1434.73 1650.36 C 1429.38 1660.07 1414.54 1685.39 1419.56 1693.58 C 1434.93 1718.69 1446.94 1692.31 1451.48 1682.05 C 1456.17 1671.36 1462.38 1661.4 1469.93 1652.49 C 1493.92 1624.14 1537.83 1605.29 1569.94 1632.51 C 1571.34 1633.53 1572.68 1634.4 1573.94 1635.57 C 1567.64 1638.68 1559.94 1633.64 1553.18 1637.51 C 1512.79 1660.62 1489.34 1701.38 1474.41 1744.12 C 1471.02 1753.82 1464.76 1782.13 1459.34 1787.63 C 1439.35 1797.14 1388.2 1775.55 1378.35 1753.34 C 1368.58 1731.32 1384.2 1663.91 1374.44 1654.06 C 1378.13 1642.15 1381.33 1605.68 1382.03 1592.58 L 1382.17 1570.25 z"/>
<path transform="translate(0,0)" fill="rgb(159,218,242)" d="M 1451.48 1682.05 C 1456.17 1671.36 1462.38 1661.4 1469.93 1652.49 C 1493.92 1624.14 1537.83 1605.29 1569.94 1632.51 C 1567.38 1634.92 1565.64 1635.37 1561.39 1634.94 C 1523.53 1631.12 1482.64 1657.2 1454.02 1682.2 C 1451.85 1682.26 1452.67 1682.47 1451.48 1682.05 z"/>
<path transform="translate(0,0)" fill="rgb(159,218,242)" d="M 1382.17 1570.25 C 1415.35 1584.29 1428.58 1602.44 1446.64 1633.14 C 1442.71 1639.42 1439.13 1644.38 1434.73 1650.36 L 1431.81 1644.55 C 1424.61 1630.08 1411.23 1617.02 1399.55 1605.83 C 1394.04 1600.55 1385.4 1598.68 1382.03 1592.58 L 1382.17 1570.25 z"/>
<path transform="translate(0,0)" fill="rgb(92,163,211)" d="M 1301.74 1249.79 C 1309.37 1254.18 1329.16 1265.18 1335.22 1270.26 C 1391.04 1299.31 1445.24 1317.25 1509.2 1313.74 C 1540.98 1311.99 1581.71 1299.17 1600.73 1331.81 C 1607.04 1340.26 1608.05 1352.68 1606.58 1362.84 C 1606.45 1363.71 1606.32 1364.57 1606.18 1365.43 C 1599.19 1423.08 1520.35 1447.53 1472.03 1453.9 C 1434.85 1458.79 1401.3 1457.14 1365.15 1447.19 C 1355.56 1416.29 1345.63 1380.33 1336.44 1348.77 C 1326.92 1316.57 1311.87 1285.52 1301.74 1249.79 z"/>
<path transform="translate(0,0)" fill="rgb(57,119,167)" d="M 1336.44 1348.77 L 1337.99 1348.02 L 1337.39 1344.61 C 1347.54 1351.58 1357.01 1367.55 1366.77 1376.96 C 1424.1 1432.23 1524.39 1425.65 1586.39 1382.1 C 1592.99 1377.46 1600.18 1369.11 1606.18 1365.43 C 1599.19 1423.08 1520.35 1447.53 1472.03 1453.9 C 1434.85 1458.79 1401.3 1457.14 1365.15 1447.19 C 1355.56 1416.29 1345.63 1380.33 1336.44 1348.77 z"/>
<path transform="translate(0,0)" fill="rgb(159,218,242)" d="M 1335.22 1270.26 C 1391.04 1299.31 1445.24 1317.25 1509.2 1313.74 C 1540.98 1311.99 1581.71 1299.17 1600.73 1331.81 L 1598.47 1332.61 C 1557.89 1317.43 1548.78 1329.16 1510.12 1334.23 C 1472.14 1339.22 1419.14 1328.36 1385.3 1310.31 C 1373.96 1304.27 1336.96 1283.12 1333.5 1272.33 L 1335.22 1270.26 z"/>
<path transform="translate(0,0)" fill="rgb(92,163,211)" d="M 1141.17 451.118 C 1174.03 409.23 1258.75 319.425 1317.04 334.243 C 1355.74 349.146 1374.65 423.658 1383.95 460.706 C 1398.01 516.797 1398.85 569.129 1396.73 626.306 C 1388.81 613.081 1376.62 599.948 1367.58 586.962 C 1341.37 557.807 1314.97 532.604 1282.13 510.845 C 1274.29 505.649 1266.53 499.965 1258.86 494.494 C 1268.82 469.774 1277.75 446.457 1293.73 424.76 C 1301.37 414.387 1311.53 404.506 1318.39 393.902 C 1278.78 364.223 1242.64 456.367 1231.76 483.329 C 1211.62 473.36 1190.7 463.275 1168.54 458.566 C 1159.46 455.924 1150.34 453.441 1141.17 451.118 z"/>
<path transform="translate(0,0)" fill="rgb(57,119,167)" d="M 1318.39 393.902 C 1367.83 413.958 1376.76 535.077 1368.26 585.42 C 1368.03 585.934 1367.8 586.448 1367.58 586.962 C 1341.37 557.807 1314.97 532.604 1282.13 510.845 C 1274.29 505.649 1266.53 499.965 1258.86 494.494 C 1268.82 469.774 1277.75 446.457 1293.73 424.76 C 1301.37 414.387 1311.53 404.506 1318.39 393.902 z"/>
<path transform="translate(0,0)" fill="rgb(159,218,242)" d="M 1141.17 451.118 C 1174.03 409.23 1258.75 319.425 1317.04 334.243 C 1309.7 339.818 1292.75 340.404 1283.63 346.167 C 1249.97 367.446 1221.52 395.685 1196.92 426.84 C 1191.01 434.263 1175.76 457.858 1168.54 458.566 C 1159.46 455.924 1150.34 453.441 1141.17 451.118 z"/>
<path transform="translate(0,0)" fill="rgb(0,0,21)" d="M 1820.98 195.51 C 1824.71 194.142 1828.22 193.819 1831.94 195.128 L 1835.97 196.645 C 1863.88 200.021 1869.43 226.591 1877.02 249.015 C 1881.76 263.041 1886.22 277.2 1890.82 291.276 L 1929.14 409.225 C 1934.77 425.775 1940.51 442.29 1946.36 458.768 C 1949.31 467.075 1953.59 477.838 1955.75 486.162 L 1955.91 487.586 C 1958.01 505.322 1958.48 494.605 1955.96 512.852 C 1950.43 534.454 1932.92 539.724 1914.18 546.074 C 1898.42 551.416 1882.6 556.684 1866.82 561.97 C 1806.4 581.644 1746.26 602.138 1686.39 623.448 C 1669.38 629.438 1634.59 639.687 1620.82 646.424 C 1608.45 647.015 1601.09 651.588 1587.97 647.532 C 1561.89 639.469 1557.74 611.422 1550.56 589.139 L 1525.49 510.46 L 1490.64 404.068 C 1487.87 395.631 1476.12 361.386 1475.23 354.67 C 1473.72 326.997 1475.97 311.866 1504.37 301.062 C 1518.04 295.862 1531.89 291.659 1545.74 287.012 L 1636.31 256.605 L 1732.72 223.393 C 1752.12 216.52 1802.47 198.502 1820.98 195.51 z"/>
<path transform="translate(0,0)" fill="url(#Gradient2)" d="M 1475.23 354.67 C 1473.72 326.997 1475.97 311.866 1504.37 301.062 C 1518.04 295.862 1531.89 291.659 1545.74 287.012 L 1636.31 256.605 L 1732.72 223.393 C 1752.12 216.52 1802.47 198.502 1820.98 195.51 L 1820.25 199.407 C 1751.78 223.58 1683.02 246.927 1613.99 269.444 L 1540.71 294.274 C 1525.13 299.511 1509.11 304.033 1494.21 310.933 C 1476.87 318.958 1476.43 336.763 1477.38 353.207 C 1476.51 353.919 1476.04 354.581 1475.23 354.67 z"/>
<path transform="translate(0,0)" fill="rgb(15,30,66)" d="M 1612 643.44 C 1650.07 631.25 1686.26 618.13 1723.85 605.289 L 1805.95 578.122 L 1885.42 550.984 C 1904.59 544.422 1943.95 536.001 1951.93 515.347 C 1952.96 512.675 1952.29 513.21 1954.39 511.114 L 1955.96 512.852 C 1950.43 534.454 1932.92 539.724 1914.18 546.074 C 1898.42 551.416 1882.6 556.684 1866.82 561.97 C 1806.4 581.644 1746.26 602.138 1686.39 623.448 C 1669.38 629.438 1634.59 639.687 1620.82 646.424 C 1616.07 645.984 1615.79 646.077 1612 643.44 z"/>
<path transform="translate(0,0)" fill="rgb(15,30,66)" d="M 1477.38 353.207 C 1481.09 369.43 1488.98 390.664 1494.28 407.009 L 1527.14 507.772 L 1549.8 578.438 C 1554.05 592.049 1557.83 605.822 1562.93 619.136 C 1570.24 638.223 1592.16 650.46 1612 643.44 C 1615.79 646.077 1616.07 645.984 1620.82 646.424 C 1608.45 647.015 1601.09 651.588 1587.97 647.532 C 1561.89 639.469 1557.74 611.422 1550.56 589.139 L 1525.49 510.46 L 1490.64 404.068 C 1487.87 395.631 1476.12 361.386 1475.23 354.67 C 1476.04 354.581 1476.51 353.919 1477.38 353.207 z"/>
<path transform="translate(0,0)" fill="rgb(15,30,66)" d="M 1835.97 196.645 C 1863.88 200.021 1869.43 226.591 1877.02 249.015 C 1881.76 263.041 1886.22 277.2 1890.82 291.276 L 1929.14 409.225 C 1934.77 425.775 1940.51 442.29 1946.36 458.768 C 1949.31 467.075 1953.59 477.838 1955.75 486.162 C 1954.8 487.987 1955.52 487.4 1953.7 488.032 C 1951.54 485.417 1951.07 479.032 1949.81 475.481 C 1919.52 390.46 1893.87 303.714 1863.49 218.745 C 1860.34 209.926 1843.96 203.245 1836.59 199.432 L 1835.97 196.645 z"/>
<path transform="translate(0,0)" fill="rgb(6,16,47)" d="M 1820.98 195.51 C 1824.71 194.142 1828.22 193.819 1831.94 195.128 C 1829.19 198.729 1825.92 198.158 1820.25 199.407 L 1820.98 195.51 z"/>
<path transform="translate(0,0)" fill="rgb(229,248,250)" d="M 1827.94 225.2 C 1833.58 224.714 1837.22 229.217 1839.28 233.873 C 1845.59 248.082 1850.26 263.881 1855.14 278.628 C 1865.62 310.145 1875.87 341.739 1885.88 373.408 C 1891.18 389.89 1896.89 406.181 1902.02 422.737 C 1908.85 444.773 1917.57 466.319 1924.17 488.424 C 1925.55 493.042 1927.32 501.869 1925.81 506.359 C 1925.09 508.492 1916.28 512.702 1913.81 513.569 C 1890.82 521.812 1867.26 528.81 1844.23 536.939 C 1764.08 564.855 1683.68 592.03 1603.03 618.462 C 1592.67 618.127 1589.78 612.547 1586.33 603.192 C 1581.25 589.422 1577.62 574.879 1573.19 560.832 L 1548.03 483.466 C 1533.43 438.556 1517.29 394.081 1504.51 348.563 C 1501.24 336.919 1505.84 333.876 1516.29 330.193 C 1528.9 325.741 1541.76 322.106 1554.41 317.675 L 1702.06 267.387 L 1776.64 241.727 C 1790.91 236.75 1813.78 228.171 1827.94 225.2 z"/>
<path transform="translate(0,0)" fill="rgb(0,0,21)" d="M 1565.87 1188.73 C 1519.15 1167.43 1552.64 1112.54 1565.74 1079.84 C 1580.28 1042.5 1595.18 1005.29 1610.42 968.22 C 1617.54 950.616 1624.54 932.964 1631.43 915.265 C 1640.82 891.45 1648.86 861.871 1683.82 866.844 C 1695.31 868.48 1713.27 876.914 1724.73 881.41 L 1799.05 910.312 C 1808.66 914.055 1819.31 919.37 1828.85 922.427 L 1944.45 967.116 C 1960.26 973.411 2006.99 990.347 2016.29 1002.13 C 2021.67 1010.13 2024.49 1017.58 2023.88 1027.28 L 2023.12 1032.6 C 2020.18 1051.17 1998.2 1100.1 1990.2 1120.39 C 1973.54 1163.32 1956.38 1206.06 1938.72 1248.59 C 1931.59 1265.41 1918.89 1309.58 1897.25 1309.22 C 1877.05 1314.49 1869.4 1308.29 1850.87 1300.92 L 1797.46 1279.25 L 1638.71 1217.38 C 1615.98 1208.57 1588.19 1195.99 1565.87 1188.73 z"/>
<path transform="translate(0,0)" fill="rgb(15,30,66)" d="M 1565.87 1188.73 C 1519.15 1167.43 1552.64 1112.54 1565.74 1079.84 C 1580.28 1042.5 1595.18 1005.29 1610.42 968.22 C 1617.54 950.616 1624.54 932.964 1631.43 915.265 C 1640.82 891.45 1648.86 861.871 1683.82 866.844 C 1695.31 868.48 1713.27 876.914 1724.73 881.41 L 1799.05 910.312 C 1808.66 914.055 1819.31 919.37 1828.85 922.427 L 1828.02 924.707 L 1825.26 925.841 C 1813.21 918.858 1790.18 912.488 1776.34 906.526 C 1756.02 897.768 1734.42 889.839 1713.8 881.791 C 1698.13 875.672 1683.35 868.081 1666.26 872.771 C 1655.4 875.751 1649.13 881.478 1644.07 891.633 C 1633 916.209 1623.64 942.786 1613.42 967.881 C 1598.25 1005 1583.36 1042.22 1568.75 1079.56 C 1562.46 1095.21 1547.08 1126.94 1544.9 1143.36 C 1543.64 1152.9 1546.43 1171.79 1554.06 1176.84 C 1557.26 1179.61 1563.81 1183.23 1567.73 1184.4 L 1565.87 1188.73 z"/>
<path transform="translate(0,0)" fill="rgb(6,16,47)" d="M 1567.73 1184.4 C 1597.13 1194.81 1624.8 1207.62 1653.99 1218.37 C 1731.37 1246.86 1807.68 1279.99 1885.01 1308.47 C 1887.81 1307.68 1892.66 1306.15 1895.38 1305.75 L 1897.25 1309.22 C 1877.05 1314.49 1869.4 1308.29 1850.87 1300.92 L 1797.46 1279.25 L 1638.71 1217.38 C 1615.98 1208.57 1588.19 1195.99 1565.87 1188.73 L 1567.73 1184.4 z"/>
<path transform="translate(0,0)" fill="rgb(6,16,47)" d="M 1828.85 922.427 L 1944.45 967.116 C 1960.26 973.411 2006.99 990.347 2016.29 1002.13 L 2014.87 1005.46 C 2000.42 992.241 1970.4 983.682 1951.97 975.849 C 1910.25 958.115 1867.02 943.565 1825.26 925.841 L 1828.02 924.707 L 1828.85 922.427 z"/>
<path transform="translate(0,0)" fill="rgb(15,30,66)" d="M 1895.38 1305.75 C 1918.36 1301.21 1921.63 1281.94 1929.5 1263.47 C 1958.5 1195.42 1984.28 1126.08 2012.62 1057.78 C 2015.47 1050.89 2019.47 1038.27 2023.12 1032.6 C 2020.18 1051.17 1998.2 1100.1 1990.2 1120.39 C 1973.54 1163.32 1956.38 1206.06 1938.72 1248.59 C 1931.59 1265.41 1918.89 1309.58 1897.25 1309.22 L 1895.38 1305.75 z"/>
<path transform="translate(0,0)" fill="rgb(15,30,66)" d="M 2014.87 1005.46 L 2016.29 1002.13 C 2021.67 1010.13 2024.49 1017.58 2023.88 1027.28 C 2021.04 1023.74 2020 1013.22 2014.87 1005.46 z"/>
<path transform="translate(0,0)" fill="rgb(229,248,250)" d="M 1674.91 896.926 C 1679.88 897.666 1685.45 899.446 1690.13 901.274 C 1721.12 913.362 1752.02 925.785 1783.01 937.884 L 1927.21 994.45 C 1947.67 1002.51 1973.16 1010.88 1992.23 1021.23 C 1998.08 1024.41 1973.86 1080.5 1971.5 1086.4 C 1956.47 1124.24 1941.04 1161.92 1925.22 1199.44 C 1915 1224.28 1905.55 1249.97 1894.69 1274.55 C 1893.2 1277.94 1891.97 1279.28 1889.14 1281.5 C 1879.48 1279.56 1866.73 1274.01 1857.32 1270.25 C 1839.37 1262.89 1821.38 1255.65 1803.34 1248.52 C 1730.03 1220.32 1656.98 1191.24 1583.81 1162.66 C 1578.46 1160.56 1568.92 1156.75 1570.67 1149.46 C 1574.57 1133.22 1581.95 1117.49 1588.28 1102.01 L 1619.6 1025.03 L 1650.21 948.238 C 1654.97 936.276 1665.51 904.18 1674.91 896.926 z"/>
<path transform="translate(0,0)" fill="rgb(0,0,21)" d="M 364.488 854.029 C 373.822 851.388 387.948 855.122 395.794 860.043 C 411.39 869.824 421.376 908.435 426.937 924.622 C 434.14 945.602 441.58 966.499 449.256 987.311 L 484.597 1083.82 C 501.372 1130.54 522.571 1167.57 455.793 1187.32 C 443.511 1190.95 422.395 1201 410.239 1202.63 C 386.31 1212.58 364.89 1220.91 340.318 1229.05 C 325.275 1234.03 309.333 1241.25 293.932 1245.79 L 279.684 1250.67 C 255.003 1257.16 219.568 1274.99 197.035 1279.97 C 191.242 1281 179.399 1286.8 172.149 1288.51 C 159.319 1291.54 143.102 1293.93 131.301 1286.85 C 125.705 1283.44 121.173 1278.53 118.213 1272.68 C 113.124 1262.6 105.203 1236.09 101.122 1224.07 L 72.6438 1141.88 L 44.9071 1060.87 C 40.7567 1048.81 32.8116 1027.91 30.1004 1016.08 C 23.7592 996.846 33.4738 972.914 52.5238 965.134 C 69.2802 958.29 85.7007 952.335 102.698 946.214 L 184.994 916.387 L 284.577 881.269 C 306.981 873.161 342.407 859.186 364.488 854.029 z"/>
<path transform="translate(0,0)" fill="url(#Gradient1)" d="M 30.1004 1016.08 C 23.7592 996.846 33.4738 972.914 52.5238 965.134 C 69.2802 958.29 85.7007 952.335 102.698 946.214 L 184.994 916.387 L 284.577 881.269 C 306.981 873.161 342.407 859.186 364.488 854.029 L 368.323 857.145 C 347.14 865.422 324.644 872.669 303.165 880.422 L 146.323 936.419 C 124.063 944.272 101.842 952.166 79.6379 960.181 C 51.8394 970.216 23.6009 976.949 32.3404 1015.61 L 30.1004 1016.08 z"/>
<path transform="translate(0,0)" fill="rgb(15,30,66)" d="M 364.488 854.029 C 373.822 851.388 387.948 855.122 395.794 860.043 C 411.39 869.824 421.376 908.435 426.937 924.622 C 434.14 945.602 441.58 966.499 449.256 987.311 L 484.597 1083.82 C 501.372 1130.54 522.571 1167.57 455.793 1187.32 C 443.511 1190.95 422.395 1201 410.239 1202.63 L 411.026 1198.36 C 474.118 1173.73 523.031 1177.69 485.524 1093.26 C 483.541 1088.8 481.403 1082 479.684 1077.21 L 433.669 951.598 C 425.63 929.516 418.566 906.987 410.329 885.03 C 407.692 879.85 405.691 871.75 400.784 868.176 C 391.053 861.089 380.35 856.353 368.323 857.145 L 364.488 854.029 z"/>
<path transform="translate(0,0)" fill="rgb(15,30,66)" d="M 32.3404 1015.61 C 36.8382 1030.58 42.4459 1045.29 47.4923 1060.11 C 58.4485 1092.87 69.5855 1125.58 80.9029 1158.22 L 105.128 1228.52 C 109.249 1240.61 112.562 1253.19 117.682 1264.94 C 121.383 1273.44 123.859 1278.41 132.242 1283.12 C 149.781 1292.98 175.32 1285.61 192.947 1277.29 L 197.035 1279.97 C 191.242 1281 179.399 1286.8 172.149 1288.51 C 159.319 1291.54 143.102 1293.93 131.301 1286.85 C 125.705 1283.44 121.173 1278.53 118.213 1272.68 C 113.124 1262.6 105.203 1236.09 101.122 1224.07 L 72.6438 1141.88 L 44.9071 1060.87 C 40.7567 1048.81 32.8116 1027.91 30.1004 1016.08 L 32.3404 1015.61 z"/>
<path transform="translate(0,0)" fill="rgb(15,30,66)" d="M 291.915 1241.62 L 370.644 1213.42 C 382.724 1208.99 399.275 1201.85 411.026 1198.36 L 410.239 1202.63 C 386.31 1212.58 364.89 1220.91 340.318 1229.05 C 325.275 1234.03 309.333 1241.25 293.932 1245.79 L 291.915 1241.62 z"/>
<path transform="translate(0,0)" fill="rgb(15,30,66)" d="M 192.947 1277.29 C 207.153 1271.27 224.493 1265.54 239.125 1260.09 C 250.83 1255.73 267.448 1249.17 278.909 1246.28 L 279.684 1250.67 C 255.003 1257.16 219.568 1274.99 197.035 1279.97 L 192.947 1277.29 z"/>
<path transform="translate(0,0)" fill="rgb(6,16,47)" d="M 291.915 1241.62 L 293.932 1245.79 L 279.684 1250.67 L 278.909 1246.28 C 281.295 1244.52 288.647 1242.63 291.915 1241.62 z"/>
<path transform="translate(0,0)" fill="rgb(229,248,250)" d="M 370.254 885.09 C 371.606 884.934 373.568 884.948 374.981 884.909 C 385.499 889.604 393.312 918.971 397.027 929.795 L 417.461 988.348 L 452.08 1084.77 C 455.637 1094.66 473.147 1138.01 470.588 1146.17 C 459.224 1155.25 381.086 1181.18 363.426 1187.64 C 320.292 1203.63 277.023 1219.25 233.624 1234.5 C 210.231 1242.85 182.84 1253.3 159.361 1260.25 C 151.465 1262.15 147.324 1263.89 143.425 1255.46 C 138.925 1245.72 136.166 1235.49 132.845 1225.32 C 128.346 1211.66 123.725 1198.05 118.983 1184.48 L 82.4958 1077.4 C 78.3809 1065.26 56.6559 1006.14 59.4856 997.726 C 69.1766 990.856 109.806 977.38 123.75 972.413 L 231.98 933.926 L 324.004 900.71 C 339.031 895.426 355.037 889.383 370.254 885.09 z"/>
</svg>