<?xml version="1.0" encoding="UTF-8"?>
<svg id="Layer_2" data-name="Layer 2" xmlns="http://www.w3.org/2000/svg" xmlns:xlink="http://www.w3.org/1999/xlink" viewBox="38 393 940 216">
  <defs>
    <style>
      .cls-1 {
        fill: url(#linear-gradient-15);
      }

      .cls-2 {
        fill: #2b4b71;
      }

      .cls-3 {
        fill: url(#linear-gradient-2);
      }

      .cls-4 {
        fill: url(#linear-gradient-10);
      }

      .cls-5 {
        fill: url(#linear-gradient-12);
      }

      .cls-6 {
        fill: #fff;
      }

      .cls-7 {
        fill: url(#linear-gradient-14);
      }

      .cls-7, .cls-8, .cls-9, .cls-10 {
        opacity: .55;
      }

      .cls-11 {
        fill: #5181b2;
      }

      .cls-12, .cls-13 {
        fill: none;
      }

      .cls-14 {
        fill: url(#linear-gradient-3);
      }

      .cls-15 {
        fill: url(#linear-gradient-5);
      }

      .cls-16 {
        fill: url(#linear-gradient-8);
      }

      .cls-13 {
        stroke: #2b4b71;
        stroke-linecap: round;
        stroke-linejoin: round;
        stroke-width: 2.36px;
      }

      .cls-8 {
        fill: url(#linear-gradient-16);
      }

      .cls-9 {
        fill: url(#linear-gradient-13);
      }

      .cls-17 {
        fill: url(#linear-gradient-7);
      }

      .cls-18 {
        fill: url(#linear-gradient-9);
      }

      .cls-19 {
        fill: url(#linear-gradient-11);
      }

      .cls-20 {
        fill: url(#linear-gradient-6);
      }

      .cls-21 {
        fill: #71a9d8;
      }

      .cls-22 {
        fill: #70aad8;
      }

      .cls-10 {
        fill: url(#linear-gradient-4);
      }

      .cls-23 {
        fill: url(#linear-gradient);
      }

      .cls-24 {
        clip-path: url(#clippath);
      }
    </style>
    <linearGradient id="linear-gradient" x1="-4304.67" y1="-103.8" x2="-4347.64" y2="-48.32" gradientTransform="translate(-4088.83 -542.24) rotate(-164.51) scale(1 -1)" gradientUnits="userSpaceOnUse">
      <stop offset=".35" stop-color="#70aad8"/>
      <stop offset=".56" stop-color="#5d90c0"/>
      <stop offset=".74" stop-color="#5181b2"/>
    </linearGradient>
    <linearGradient id="linear-gradient-2" x1="794.28" y1="1309.41" x2="751.31" y2="1364.89" gradientTransform="translate(-898.62 -542.24) rotate(-15.49)" xlink:href="#linear-gradient"/>
    <linearGradient id="linear-gradient-3" x1="151.86" y1="506.42" x2="151.86" y2="583.72" gradientUnits="userSpaceOnUse">
      <stop offset="0" stop-color="#abd9f3"/>
      <stop offset=".47" stop-color="#acd9f3"/>
      <stop offset=".63" stop-color="#b3dcf4"/>
      <stop offset=".75" stop-color="#bfe2f5"/>
      <stop offset=".85" stop-color="#d0e9f8"/>
      <stop offset=".93" stop-color="#e6f3fb"/>
      <stop offset="1" stop-color="#fff"/>
    </linearGradient>
    <linearGradient id="linear-gradient-4" x1="151.86" y1="564.6" x2="151.86" y2="494.41" gradientUnits="userSpaceOnUse">
      <stop offset=".46" stop-color="#5181b2" stop-opacity="0"/>
      <stop offset=".52" stop-color="#5181b2" stop-opacity=".3"/>
      <stop offset=".59" stop-color="#5181b2" stop-opacity=".67"/>
      <stop offset=".64" stop-color="#5181b2" stop-opacity=".91"/>
      <stop offset=".67" stop-color="#5181b2"/>
    </linearGradient>
    <linearGradient id="linear-gradient-5" x1="-6205.01" y1="4736.12" x2="-6154.96" y2="4736.12" gradientTransform="translate(6419.98 5232.14) scale(1 -1)" gradientUnits="userSpaceOnUse">
      <stop offset="0" stop-color="#abd9f3"/>
      <stop offset=".18" stop-color="#a5d5f1"/>
      <stop offset=".42" stop-color="#94caec"/>
      <stop offset=".69" stop-color="#79b9e3"/>
      <stop offset=".98" stop-color="#53a0d7"/>
      <stop offset="1" stop-color="#519fd7"/>
    </linearGradient>
    <linearGradient id="linear-gradient-6" x1="-5203.26" y1="403.94" x2="-5171.3" y2="444.62" gradientTransform="translate(-4987.45) rotate(-180) scale(1 -1)" gradientUnits="userSpaceOnUse">
      <stop offset=".44" stop-color="#5181b2" stop-opacity="0"/>
      <stop offset=".86" stop-color="#5181b2"/>
    </linearGradient>
    <linearGradient id="linear-gradient-7" x1="87.91" y1="403.93" x2="119.87" y2="444.61" gradientTransform="matrix(1,0,0,1,0,0)" xlink:href="#linear-gradient-6"/>
    <linearGradient id="linear-gradient-8" x1="151.89" y1="402.26" x2="151.89" y2="578.44" gradientUnits="userSpaceOnUse">
      <stop offset=".32" stop-color="#70aad8"/>
      <stop offset=".59" stop-color="#5d90c0"/>
      <stop offset=".81" stop-color="#5181b2"/>
    </linearGradient>
    <linearGradient id="linear-gradient-9" x1="127.52" y1="445.72" x2="127.52" y2="519.03" gradientUnits="userSpaceOnUse">
      <stop offset=".27" stop-color="#abd9f3"/>
      <stop offset=".61" stop-color="#acd9f3"/>
      <stop offset=".73" stop-color="#b3dcf4"/>
      <stop offset=".82" stop-color="#bfe2f5"/>
      <stop offset=".89" stop-color="#d0e9f8"/>
      <stop offset=".95" stop-color="#e6f3fb"/>
      <stop offset="1" stop-color="#fff"/>
    </linearGradient>
    <linearGradient id="linear-gradient-10" x1="-5033.55" y1="445.72" x2="-5033.55" y2="519.03" gradientTransform="translate(-4857.44) rotate(-180) scale(1 -1)" xlink:href="#linear-gradient-9"/>
    <linearGradient id="linear-gradient-11" x1="-4393.33" y1="-235.17" x2="-4343.28" y2="-235.17" gradientTransform="translate(4433.86 731.14)" gradientUnits="userSpaceOnUse">
      <stop offset="0" stop-color="#abd9f3"/>
      <stop offset=".18" stop-color="#a3d3f0"/>
      <stop offset=".45" stop-color="#8dc6e9"/>
      <stop offset=".79" stop-color="#6aafdf"/>
      <stop offset="1" stop-color="#519fd7"/>
    </linearGradient>
    <linearGradient id="linear-gradient-12" x1="-15487.59" y1="596.27" x2="-15481.26" y2="541.69" gradientTransform="translate(-15313.12) rotate(-180) scale(1 -1)" xlink:href="#linear-gradient"/>
    <linearGradient id="linear-gradient-13" x1="-15484.55" y1="577.01" x2="-15489.4" y2="600.06" gradientTransform="translate(-15313.12) rotate(-180) scale(1 -1)" xlink:href="#linear-gradient-4"/>
    <clipPath id="clippath">
      <path class="cls-12" d="M141.4,581.75l48.51-15.04h0c1.76-.64,3.66-.99,5.63-.99,9.1,0,16.5,7.4,16.5,16.5s-7.4,16.5-16.5,16.5h-52.46c-4.72,0-8.56-3.84-8.56-8.56,0-4.15,2.95-7.64,6.88-8.42Z"/>
    </clipPath>
    <linearGradient id="linear-gradient-14" x1="193.69" y1="584.26" x2="162.42" y2="590.73" xlink:href="#linear-gradient-4"/>
    <linearGradient id="linear-gradient-15" x1="129.24" y1="596.27" x2="135.57" y2="541.69" gradientTransform="matrix(1,0,0,1,0,0)" xlink:href="#linear-gradient"/>
    <linearGradient id="linear-gradient-16" x1="132.28" y1="577.01" x2="127.43" y2="600.06" xlink:href="#linear-gradient-4"/>
  </defs>
  <g id="Layer_1" data-name="Layer 1">
        <g>
      <g>
        <path d="M333.39,446.75v102.62h-22.47v-102.62h22.47ZM352.52,515.25h-24.68v-19.97h19.69c5.45,0,9.52-1.18,12.2-3.54,2.68-2.36,4.02-5.94,4.02-10.75s-1.34-8.39-4.02-10.75c-2.68-2.36-6.75-3.54-12.2-3.54h-19.69v-19.97h24.68c7.02,0,13.15,1.43,18.37,4.3,5.22,2.87,9.29,6.86,12.2,12,2.91,5.13,4.37,11.12,4.37,17.96s-1.46,12.83-4.37,17.96c-2.91,5.13-6.98,9.13-12.2,12-5.22,2.87-11.35,4.3-18.37,4.3Z"/>
        <path d="M394.54,514.56c0-7.3,1.64-13.71,4.92-19.21,3.28-5.5,7.81-9.78,13.59-12.83,5.78-3.05,12.36-4.58,19.76-4.58s13.96,1.53,19.69,4.58c5.73,3.05,10.24,7.33,13.52,12.83,3.28,5.5,4.92,11.9,4.92,19.21s-1.64,13.68-4.92,19.14c-3.28,5.46-7.79,9.71-13.52,12.76-5.73,3.05-12.3,4.58-19.69,4.58s-13.98-1.53-19.76-4.58c-5.78-3.05-10.31-7.3-13.59-12.76-3.28-5.45-4.92-11.83-4.92-19.14ZM416.04,514.42c0,3.51.71,6.59,2.15,9.22,1.43,2.64,3.4,4.67,5.89,6.1,2.5,1.43,5.41,2.15,8.74,2.15s6.24-.72,8.74-2.15c2.5-1.43,4.44-3.47,5.82-6.1,1.39-2.63,2.08-5.71,2.08-9.22s-.69-6.56-2.08-9.15c-1.39-2.59-3.33-4.6-5.82-6.03-2.5-1.43-5.41-2.15-8.74-2.15s-6.24.72-8.74,2.15c-2.5,1.43-4.46,3.45-5.89,6.03-1.43,2.59-2.15,5.64-2.15,9.15Z"/>
        <path d="M486.07,582.65v-102.62h20.11l1.11,8.46c1.94-3.24,4.94-5.82,9.01-7.77,4.07-1.94,8.55-2.91,13.45-2.91,6.47,0,12.16,1.43,17.06,4.3,4.9,2.87,8.74,6.96,11.51,12.27,2.77,5.32,4.16,11.72,4.16,19.21s-1.27,13.8-3.81,19.48c-2.54,5.69-6.24,10.15-11.09,13.38-4.85,3.24-10.75,4.85-17.68,4.85-4.81,0-9.25-.83-13.31-2.5-4.07-1.66-7.12-3.79-9.15-6.38v40.22h-21.36ZM507.56,514.7c0,3.42.72,6.45,2.15,9.08,1.43,2.64,3.42,4.67,5.96,6.1,2.54,1.43,5.48,2.15,8.81,2.15s6.36-.74,8.81-2.22c2.45-1.48,4.34-3.51,5.69-6.1,1.34-2.59,2.01-5.59,2.01-9.01s-.67-6.42-2.01-9.01c-1.34-2.59-3.24-4.62-5.69-6.1-2.45-1.48-5.39-2.22-8.81-2.22s-6.26.72-8.81,2.15c-2.54,1.43-4.53,3.45-5.96,6.03-1.43,2.59-2.15,5.64-2.15,9.15Z"/>
        <path d="M590.77,549.37h-23.44l36.61-102.62h21.91l36.47,102.62h-23.85l-7.21-21.63h-33.14l-7.35,21.63ZM611.99,486.96l-7.35,21.91h20.25l-7.35-21.91c-.55-1.76-1.11-3.56-1.66-5.41-.55-1.85-.93-3.37-1.11-4.58-.19,1.2-.53,2.7-1.04,4.51-.51,1.8-1.09,3.63-1.73,5.48Z"/>
        <path d="M695.74,549.37h-21.36v-104.56h21.36v104.56Z"/>
        <path d="M717.38,582.65v-102.62h20.11l1.11,8.46c1.94-3.24,4.94-5.82,9.01-7.77,4.07-1.94,8.55-2.91,13.45-2.91,6.47,0,12.16,1.43,17.06,4.3,4.9,2.87,8.74,6.96,11.51,12.27,2.77,5.32,4.16,11.72,4.16,19.21s-1.27,13.8-3.81,19.48c-2.54,5.69-6.24,10.15-11.09,13.38-4.85,3.24-10.75,4.85-17.68,4.85-4.81,0-9.25-.83-13.31-2.5-4.07-1.66-7.12-3.79-9.15-6.38v40.22h-21.36ZM738.87,514.7c0,3.42.72,6.45,2.15,9.08,1.43,2.64,3.42,4.67,5.96,6.1,2.54,1.43,5.48,2.15,8.81,2.15s6.36-.74,8.81-2.22c2.45-1.48,4.34-3.51,5.69-6.1,1.34-2.59,2.01-5.59,2.01-9.01s-.67-6.42-2.01-9.01c-1.34-2.59-3.24-4.62-5.69-6.1-2.45-1.48-5.39-2.22-8.81-2.22s-6.26.72-8.81,2.15c-2.54,1.43-4.53,3.45-5.96,6.03-1.43,2.59-2.15,5.64-2.15,9.15Z"/>
        <path d="M827.48,549.37h-21.36v-104.56h21.49v42.43c2.13-2.96,5.06-5.27,8.81-6.93,3.74-1.66,7.88-2.5,12.41-2.5,8.23,0,14.63,2.52,19.21,7.56,4.58,5.04,6.86,12.09,6.86,21.15v42.85h-21.36v-37.72c0-2.96-.51-5.5-1.53-7.63-1.02-2.13-2.43-3.79-4.23-4.99-1.8-1.2-3.95-1.8-6.45-1.8-2.77,0-5.2.58-7.28,1.73-2.08,1.16-3.7,2.8-4.85,4.92-1.16,2.13-1.73,4.62-1.73,7.49v38Z"/>
        <path d="M913.88,551.17c-7.3,0-13.1-2.01-17.4-6.03-4.3-4.02-6.45-9.41-6.45-16.16,0-6.38,2.2-11.46,6.59-15.25,4.39-3.79,10.75-6.01,19.07-6.66l19.41-1.53v-1.11c0-2.31-.46-4.23-1.39-5.76-.92-1.53-2.24-2.68-3.95-3.47-1.71-.78-3.86-1.18-6.45-1.18-4.53,0-7.97.83-10.33,2.5-2.36,1.66-3.54,4.07-3.54,7.21h-17.75c0-5.27,1.34-9.85,4.02-13.73,2.68-3.88,6.49-6.89,11.44-9.01,4.94-2.13,10.7-3.19,17.27-3.19s12.46,1.2,17.13,3.61c4.67,2.4,8.23,5.92,10.68,10.54,2.45,4.62,3.67,10.26,3.67,16.92v40.49h-18.86l-1.39-9.15c-1.11,3.14-3.72,5.76-7.83,7.84-4.11,2.08-8.76,3.12-13.94,3.12ZM921.37,535.36c4.07,0,7.4-.99,9.98-2.98,2.59-1.99,3.88-4.97,3.88-8.94v-3.74l-10.82.97c-4.62.37-7.88,1.13-9.78,2.29-1.9,1.16-2.84,2.84-2.84,5.06,0,2.5.78,4.35,2.36,5.55,1.57,1.2,3.97,1.8,7.21,1.8Z"/>
      </g>
      <g>
        <g>
          <path class="cls-23" d="M79.54,528.46c.16-.03.32-.05.48-.07.16-.03.32-.05.48-.07.16-.03.32-.06.48-.08.16-.03.32-.06.48-.08.16-.03.32-.07.48-.09.16-.03.32-.07.48-.09.02,0,.05,0,.07-.01.15-.04.31-.07.47-.1.15-.04.31-.07.47-.1.15-.04.31-.07.47-.11.15-.04.31-.08.47-.11.15-.04.31-.08.46-.12.15-.04.31-.09.46-.12.15-.05.31-.09.46-.13.15-.05.3-.1.46-.13.15-.05.3-.1.46-.14.01,0,.02,0,.03,0,.15-.05.3-.1.45-.14.15-.06.3-.1.45-.15.15-.06.3-.1.45-.15.15-.06.3-.11.45-.16.15-.06.3-.11.45-.16.15-.06.3-.12.45-.17.15-.06.29-.12.45-.17.15-.06.29-.12.44-.18.15-.06.29-.13.44-.18.2-.1.4-.18.61-.27.13-.06.26-.12.39-.17.14-.06.27-.13.41-.19.13-.06.26-.12.39-.18.13-.06.26-.12.39-.18.13-.07.26-.13.39-.19.13-.07.26-.13.39-.19.13-.07.26-.14.39-.2.13-.07.26-.14.39-.2.13-.07.26-.14.39-.2.13-.07.25-.14.38-.21.13-.07.25-.14.38-.21.13-.07.25-.15.38-.22.13-.08.26-.15.39-.22.12-.08.25-.15.38-.22.12-.08.25-.15.38-.22.12-.08.25-.16.38-.23.12-.08.25-.16.38-.23.12-.08.25-.16.38-.24.12-.08.25-.16.37-.24.12-.08.25-.16.38-.24.12-.08.25-.17.37-.25.12-.09.25-.17.37-.25,1.99-1.42,12.77-10.54,15.4-10.41,6.22.3,2.71,13.93,2.41,20.15-.21,4.37-2.88,8.03-6.61,9.72-.18.09-.37.18-.56.27-.19.09-.37.18-.56.27-.19.09-.37.18-.56.26-.19.09-.38.18-.57.26-.19.09-.38.17-.57.25-.19.09-.38.17-.57.25-.19.09-.38.17-.57.24-.19.08-.38.16-.58.24-.19.08-.38.16-.58.23-.19.08-.38.16-.58.23-.19.08-.38.15-.58.22-.19.08-.39.15-.58.22-.19.08-.39.15-.59.21-.19.07-.39.14-.59.21-.19.07-.39.14-.58.2-.19.07-.39.13-.59.19-.19.07-.39.13-.59.19-.2.07-.39.13-.59.19-.2.07-.4.13-.6.18-.2.06-.4.13-.6.18-.19.06-.39.12-.59.17-.2.06-.4.11-.6.16-.23.07-.46.13-.69.18-.16.04-.32.08-.48.12-.18.05-.37.1-.56.14-.19.05-.37.09-.56.13-.19.05-.38.09-.56.13-.19.05-.38.09-.57.12-.34.09-.68.16-1.03.21-.19.04-.37.08-.57.11-.19.04-.38.08-.57.1-.19.04-.38.07-.57.1-.19.04-.38.07-.57.09-.19.04-.38.07-.57.09-.19.03-.38.06-.58.08-.19.03-.38.06-.58.08-.19.03-.39.05-.58.07-.19.03-.39.05-.58.07-.34.05-.68.09-1.03.11-.19.02-.38.04-.58.05-.19.02-.39.04-.58.05-.19.02-.39.04-.58.04-.19.02-.39.03-.59.04-.19.02-.39.03-.59.03-.2.02-.39.02-.59.03-.2.01-.39.02-.59.02-.2.01-.4.02-.59.02-.2.01-.4.01-.6.01-.2.01-.4,0-.6,0-.32.02-.64.02-.96,0-.02,0-.03,0-.04,0-.17,0-.33,0-.5,0-5.13-.25-9.08-4.61-8.83-9.74.23-4.61,3.78-8.26,8.22-8.77Z"/>
          <path class="cls-3" d="M224.18,528.47c-.16-.03-.32-.05-.48-.07-.16-.03-.32-.05-.48-.07-.16-.03-.32-.06-.48-.08-.16-.03-.32-.06-.48-.08-.16-.03-.32-.07-.48-.09-.16-.03-.32-.07-.48-.09-.02,0-.05,0-.07-.01-.15-.04-.31-.07-.47-.1-.15-.04-.31-.07-.47-.1-.15-.04-.31-.07-.47-.11-.15-.04-.31-.08-.47-.11-.15-.04-.31-.08-.46-.12-.15-.04-.31-.09-.46-.12-.15-.05-.31-.09-.46-.13-.15-.05-.3-.1-.46-.13-.15-.05-.3-.1-.46-.14-.01,0-.02,0-.03,0-.15-.05-.3-.1-.45-.14-.15-.06-.3-.1-.45-.15-.15-.06-.3-.1-.45-.15-.15-.06-.3-.11-.45-.16-.15-.06-.3-.11-.45-.16-.15-.06-.3-.12-.45-.17-.15-.06-.29-.12-.45-.17-.15-.06-.29-.12-.44-.18-.15-.06-.29-.13-.44-.18-.2-.1-.4-.18-.61-.27-.13-.06-.26-.12-.39-.17-.14-.06-.27-.13-.41-.19-.13-.06-.26-.12-.39-.18-.13-.06-.26-.12-.39-.18-.13-.07-.26-.13-.39-.19-.13-.07-.26-.13-.39-.19-.13-.07-.26-.14-.39-.2-.13-.07-.26-.14-.39-.2-.13-.07-.26-.14-.39-.2-.13-.07-.25-.14-.38-.21-.13-.07-.25-.14-.38-.21-.13-.07-.25-.15-.38-.22-.13-.08-.26-.15-.39-.22-.12-.08-.25-.15-.38-.22-.12-.08-.25-.15-.38-.22-.12-.08-.25-.16-.38-.23-.12-.08-.25-.16-.38-.23-.12-.08-.25-.16-.38-.24-.12-.08-.25-.16-.37-.24-.12-.08-.25-.16-.38-.24-.12-.08-.25-.17-.37-.25-.12-.09-.25-.17-.37-.25-1.99-1.42-12.77-10.54-15.4-10.41-6.22.3-2.71,13.93-2.41,20.15.21,4.37,2.88,8.03,6.61,9.72.18.09.37.18.56.27.19.09.37.18.56.27.19.09.37.18.56.26.19.09.38.18.57.26.19.09.38.17.57.25.19.09.38.17.57.25.19.09.38.17.57.24.19.08.38.16.58.24.19.08.38.16.58.23.19.08.38.16.58.23.19.08.38.15.58.22.19.08.39.15.58.22.19.08.39.15.59.21.19.07.39.14.59.21.19.07.39.14.58.2.19.07.39.13.59.19.19.07.39.13.59.19.2.07.39.13.59.19.2.07.4.13.6.18.2.06.4.13.6.18.19.06.39.12.59.17.2.06.4.11.6.16.23.07.46.13.69.18.16.04.32.08.48.12.18.05.37.1.56.14.19.05.37.09.56.13.19.05.38.09.56.13.19.05.38.09.57.12.34.09.68.16,1.03.21.19.04.37.08.57.11.19.04.38.08.57.1.19.04.38.07.57.1.19.04.38.07.57.09.19.04.38.07.57.09.19.03.38.06.58.08.19.03.38.06.58.08.19.03.39.05.58.07.19.03.39.05.58.07.34.05.68.09,1.03.11.19.02.38.04.58.05.19.02.39.04.58.05.19.02.39.04.58.04.19.02.39.03.59.04.19.02.39.03.59.03.2.02.39.02.59.03.2.01.39.02.59.02.2.01.4.02.59.02.2.01.4.01.6.01.2.01.4,0,.6,0,.32.02.64.02.96,0,.02,0,.03,0,.04,0,.17,0,.33,0,.5,0,5.13-.25,9.08-4.61,8.83-9.74-.23-4.61-3.78-8.26-8.22-8.77Z"/>
          <path class="cls-22" d="M190.55,504.87l-38.65-8.88v-.02h-.05s-.02,0-.02,0h0s-38.65,8.89-38.65,8.89c-4.53,11.65-8.81,24.56-10.59,48.73-1.24,16.85,10.37,31.98,26.99,34.99,7.5,1.36,15.03,2,22.33,2h0c7.33,0,14.82-.63,22.27-1.98,16.62-3.01,28.21-18.14,26.98-34.99-1.78-24.18-6.06-37.09-10.59-48.75Z"/>
          <path class="cls-14" d="M186.06,552.22c-1.26-26.1-9.61-45.79-9.61-45.79l-24.58,5.81-24.61-5.82s-8.35,19.69-9.61,45.79c-1.12,23.18,18.37,31.48,34.17,31.51h0c15.81,0,35.36-8.29,34.24-31.5Z"/>
          <path class="cls-10" d="M190.55,504.87l-38.65-8.88v-.02h-.05s-.02,0-.02,0h0s-38.65,8.89-38.65,8.89c-4.42,11.37-8.61,23.94-10.46,47.01-1.46,18.23,11.8,34.31,29.98,36.35,6.44.72,12.87.92,19.14.75h0c6.29.18,12.74-.02,19.2-.74,18.18-2.04,31.45-18.12,29.99-36.35-1.85-23.07-6.04-35.64-10.46-47.01Z"/>
          <rect class="cls-15" x="218.59" y="479.89" width="40.96" height="32.16" rx="5.62" ry="5.62" transform="translate(786.92 441.17) rotate(110.02)"/>
          <path class="cls-21" d="M160.16,424.41c-9.91,16.91-1.38,33.72,13.36,41.18,14.74,7.46,23.9,16.22,33.87-.66,16.55-28.04,6.31-58.49-1.8-62.67-8.27-4.26-35.66,5.51-45.42,22.15Z"/>
          <path class="cls-11" d="M171.28,427.3c-6.32,10.78-.9,21.48,8.47,26.23s15.2,10.32,21.55-.44c10.55-17.87,4.06-37.27-1.1-39.93-5.26-2.71-22.69,3.53-28.91,14.14Z"/>
          <path class="cls-20" d="M160.16,424.41c-9.91,16.91-1.38,33.72,13.36,41.18,14.74,7.46,23.9,16.22,33.87-.66,16.55-28.04,6.31-58.49-1.8-62.67-8.27-4.26-35.66,5.51-45.42,22.15Z"/>
          <path class="cls-21" d="M143.55,424.41c9.91,16.91,1.38,33.72-13.36,41.18-14.74,7.46-23.9,16.22-33.87-.66-16.55-28.04-6.31-58.49,1.8-62.67,8.27-4.26,35.66,5.51,45.42,22.15Z"/>
          <path class="cls-11" d="M132.43,427.29c6.32,10.78.9,21.48-8.47,26.23-9.37,4.75-15.2,10.32-21.55-.44-10.55-17.87-4.06-37.27,1.1-39.93,5.26-2.71,22.69,3.53,28.91,14.14Z"/>
          <path class="cls-17" d="M143.55,424.41c9.91,16.91,1.38,33.72-13.36,41.18-14.74,7.46-23.9,16.22-33.87-.66-16.55-28.04-6.31-58.49,1.8-62.67,8.27-4.26,35.66,5.51,45.42,22.15Z"/>
          <path class="cls-16" d="M206.75,472.1c0-28.89-24.56-52.31-54.86-52.31s-54.86,23.42-54.86,52.31c0,3.98.47,7.85,1.35,11.57-.88,2.37-1.35,4.84-1.35,7.38,0,18.42,24.56,33.36,54.85,33.36h0s0,0,0,0c30.29,0,54.85-14.93,54.85-33.36,0-2.53-.47-5-1.35-7.38.88-3.72,1.35-7.6,1.35-11.58Z"/>
          <path class="cls-18" d="M151.89,480.88l-5.39-.28c-3.1-27.01-8.39-34.89-20.53-34.89h0c-9.74,0-21.09,8.61-18.2,33.7-3.61,1.97-4.62,7.26-4.62,11.47,0,10.61,13.53,27.53,48.67,28.14l.07-38.15Z"/>
          <path class="cls-4" d="M151.74,480.88l5.39-.28c3.1-27.01,8.39-34.89,20.53-34.89h0c9.74,0,21.09,8.61,18.2,33.7,3.61,1.97,4.62,7.26,4.62,11.47,0,10.61-13.53,27.53-48.67,28.14l-.07-38.15Z"/>
          <ellipse class="cls-2" cx="128.08" cy="471.11" rx="9.17" ry="10.78"/>
          <ellipse class="cls-6" cx="130.45" cy="466.01" rx="2.37" ry="2.81"/>
          <circle class="cls-22" cx="125.05" cy="476" r="1.72"/>
          <ellipse class="cls-22" cx="119.86" cy="492.77" rx="7.4" ry="4.37"/>
          <rect class="cls-19" x="44.16" y="479.89" width="40.96" height="32.16" rx="5.62" ry="5.62" transform="translate(508.49 265.41) rotate(69.98)"/>
          <ellipse class="cls-2" cx="175.64" cy="471.12" rx="9.17" ry="10.78"/>
          <ellipse class="cls-6" cx="178.01" cy="466.02" rx="2.37" ry="2.81"/>
          <path class="cls-22" d="M174.33,476.01c0,.95-.77,1.72-1.72,1.72-.95,0-1.72-.77-1.72-1.72s.77-1.72,1.72-1.72,1.72.77,1.72,1.72Z"/>
          <ellipse class="cls-22" cx="183.85" cy="492.77" rx="7.4" ry="4.37"/>
          <path class="cls-13" d="M151.83,494.93c-2.09,3.23-10.09,3.79-11.17-1.04"/>
          <path class="cls-13" d="M151.88,494.93c2.09,3.23,10.09,3.79,11.17-1.04"/>
          <path class="cls-2" d="M145.79,480.14c0-1.99,2.73-3.6,6.1-3.6s6.1,1.61,6.1,3.6-2.73,5.19-6.1,5.19-6.1-3.21-6.1-5.19Z"/>
        </g>
        <path class="cls-5" d="M141.4,581.75l48.51-15.04h0c1.76-.64,3.66-.99,5.63-.99,9.1,0,16.5,7.4,16.5,16.5s-7.4,16.5-16.5,16.5h-52.46c-4.72,0-8.56-3.84-8.56-8.56,0-4.15,2.95-7.64,6.88-8.42Z"/>
        <path class="cls-9" d="M141.4,581.75l48.51-15.04h0c1.76-.64,3.66-.99,5.63-.99,9.1,0,16.5,7.4,16.5,16.5s-7.4,16.5-16.5,16.5h-52.46c-4.72,0-8.56-3.84-8.56-8.56,0-4.15,2.95-7.64,6.88-8.42Z"/>
        <g class="cls-24">
          <path class="cls-7" d="M151.86,578.51s20.92,2.17,21.42,12.88-9.32,13.42-9.32,13.42l-25.94.73-1.21-2.73"/>
        </g>
        <g>
          <path class="cls-1" d="M162.32,581.75l-48.51-15.04h0c-1.76-.64-3.66-.99-5.63-.99-9.1,0-16.5,7.4-16.5,16.5s7.4,16.5,16.5,16.5h52.46c4.72,0,8.56-3.84,8.56-8.56,0-4.15-2.95-7.64-6.88-8.42Z"/>
          <path class="cls-8" d="M162.32,581.75l-48.51-15.04h0c-1.76-.64-3.66-.99-5.63-.99-9.1,0-16.5,7.4-16.5,16.5s7.4,16.5,16.5,16.5h52.46c4.72,0,8.56-3.84,8.56-8.56,0-4.15-2.95-7.64-6.88-8.42Z"/>
        </g>
      </g>
    </g>
  </g>
</svg>